<svg xmlns="http://www.w3.org/2000/svg" xmlns:xlink="http://www.w3.org/1999/xlink" viewBox="0 0 317.068 316.763"><defs><style>.a{fill:#fff;}.b{fill:#006fcf;}.c{mask:url(#a);}.d{mask:url(#b);}</style><mask id="a" x="0" y="98.244" width="316.852" height="129.745" maskUnits="userSpaceOnUse"><polygon class="a" points="0.001 98.247 0.001 227.987 316.852 227.987 316.852 98.247 0.001 98.247"/></mask><mask id="b" x="62.496" y="181.65" width="254.573" height="37.331" maskUnits="userSpaceOnUse"><polygon class="a" points="317.069 218.981 317.069 181.65 62.496 181.65 62.496 218.981 317.069 218.981"/></mask></defs><title>american_express</title><polygon class="b" points="0.048 0 0.048 316.763 316.805 316.763 316.805 172.643 316.805 0 0.048 0"/><g class="c"><path class="a" d="M278.032,153.6h23.783V98.244H276.431V107.1l-5.65-8.852h-22.13v11.193l-4.958-11.193H207.11a33.224,33.224,0,0,0-5.135.389,28.615,28.615,0,0,0-4.118.953,25.729,25.729,0,0,0-3.032,1.157,23.877,23.877,0,0,0-3.283,1.829V98.244H72.149L68.9,107.9,65.59,98.244H37.81v11.311L32.8,98.244H10.133L0,121.92V153.6H16.051l2.986-7.945H24.69l3.041,7.945h123.5v-8.051l6.186,8.051h34.126V149.57a22.673,22.673,0,0,0,2.727,1.5,25.118,25.118,0,0,0,2.851,1.111,27.464,27.464,0,0,0,3.611.9,32.621,32.621,0,0,0,5.794.509h20.422l2.987-7.945h5.652l3.038,7.945H272.86v-8.213Zm38.818,70.983V172.642H120.3l-5.013,7.093-4.956-7.093H53.8v55.347h56.309l4.907-7.2,5.065,7.2h35.247V216.047h-.372a34.009,34.009,0,0,0,11.893-2.1v14.044h24.581V219.94l6.185,8.049H304.266a24.979,24.979,0,0,0,8.526-1.457A22.078,22.078,0,0,0,316.85,224.579Z"/></g><g class="d"><path class="b" d="M304.484,211.514H285.34v7.466h18.873c8.057,0,12.855-4.906,12.855-11.892,0-6.667-4.32-10.557-11.571-10.557h-8.638a3.4,3.4,0,0,1-3.626-3.574,3.5,3.5,0,0,1,3.626-3.732h16.206l3.312-7.573H297.123c-8.054,0-12.851,4.907-12.851,11.625,0,6.879,4.535,10.824,11.628,10.824h8.584a3.455,3.455,0,0,1,3.677,3.629A3.556,3.556,0,0,1,304.484,211.514Zm-35.515,0H249.828v7.466H268.7c8.055,0,12.855-4.906,12.855-11.892,0-6.667-4.319-10.557-11.573-10.557h-8.639a3.4,3.4,0,0,1-3.626-3.574,3.5,3.5,0,0,1,3.626-3.732h16.209l3.309-7.573H261.609c-8.052,0-12.852,4.907-12.852,11.625,0,6.879,4.535,10.824,11.628,10.824h8.584a3.456,3.456,0,0,1,3.678,3.629A3.556,3.556,0,0,1,268.969,211.514Zm-24.58-22.289v-7.573H214.527V218.98h29.862v-7.521h-20.9v-7.516h20.423v-7.467H223.485v-7.251Zm-50.02.052c3.2,0,4.907,2.079,4.907,4.642s-1.708,4.581-4.907,4.581h-10.5v-9.223Zm-10.5,16.264h4.213l11.144,13.439h11.145l-12.423-13.758c6.347-1.175,10.13-5.76,10.13-11.732,0-6.986-4.958-11.838-12.9-11.838H174.906V218.98h8.958Zm-22.824-11.36a4.377,4.377,0,0,1-4.745,4.587H145.577V189.6h10.718A4.35,4.35,0,0,1,161.04,194.181Zm-24.422-12.529V218.98h8.959V206.658h11.25c8.161,0,13.224-5.33,13.224-12.529,0-7.409-4.956-12.477-12.9-12.477ZM123.447,218.98h11.2L119.66,200.156l14.879-18.5H123.662l-9.174,11.838-9.117-11.838h-11.2L109.1,200.315,94.224,218.98H105.1l9.172-12ZM92.358,189.225v-7.573H62.5V218.98H92.358v-7.521h-20.9v-7.516H91.88v-7.467H71.457v-7.251Z"/></g><path class="b" d="M265.608,122.241l-.106-3.093,1.866,3.093,14.288,22.343h10.456V107.255h-8.745v21.6l.106,2.773-1.653-2.773-13.974-21.6h-10.98v37.329h8.742Zm-35.725-1.066,2.719-6.986,2.715,6.986,3.312,8.265h-12Zm14.822,23.409h10.076l-15.939-37.329H227.053l-15.994,37.329H220.6l3.148-8h17.755Zm-39.086,0h.481l3.678-7.945h-2.719c-6.133,0-9.759-3.838-9.759-10.45v-.533c0-5.92,3.251-10.346,9.653-10.346h9.7v-8.055h-10.45c-11.519,0-17.811,7.735-17.811,18.347v.639C188.4,137.333,194.85,144.532,205.619,144.584Zm-31.834,0h8.959V107.255h-8.959v37.329Zm-18.824-29.7c3.2,0,4.907,2.08,4.907,4.64s-1.708,4.584-4.907,4.584H144.456v-9.224Zm-10.505,16.265h4.213l11.147,13.436H170.96l-12.426-13.759c6.347-1.172,10.134-5.759,10.134-11.729,0-6.986-4.962-11.841-12.907-11.841H135.5v37.329h8.959ZM128.94,114.829v-7.574H99.078v37.329H128.94v-7.625h-20.9v-7.412h20.422v-7.464H108.037v-7.254ZM54.66,119.1l-.216-10.078,10.347,35.566H72.9L83.24,109.231l-.213,9.811v25.542h8.691V107.255H75.935l-7.093,26.45L61.7,107.255H45.966v37.329H54.66Zm-35.676,2.079,2.721-6.986,2.719,6.986,3.306,8.265h-12Zm14.824,23.409H43.887L27.943,107.255H16.159l-16,37.329H9.706l3.147-8H30.609Z"/></svg>