<svg xmlns="http://www.w3.org/2000/svg" viewBox="0 0 31.7 31.7"><defs><style>.cls-1{fill:#273143;opacity:0.9;isolation:isolate;}.cls-2{fill:#eceff0;}</style></defs><title>facebook</title><g id="Layer_2" data-name="Layer 2"><g id="Layer_1-2" data-name="Layer 1"><path class="cls-1" d="M31.7,26.9a4.8,4.8,0,0,1-4.8,4.8H4.8A4.8,4.8,0,0,1,0,26.9V4.8A4.87,4.87,0,0,1,4.8,0H26.9a4.8,4.8,0,0,1,4.8,4.8Z"/><path class="cls-2" d="M24.3,18.3l.5-4H20.9V11.8c0-1.2.3-1.9,2-1.9H25V6.3c-.4,0-1.6-.2-3.1-.2-3,0-5.1,1.9-5.1,5.3v2.9H13.4v4h3.4V28.5h4.1V18.3Z"/></g></g></svg>