<svg xmlns="http://www.w3.org/2000/svg" viewBox="0 0 337.8 357.1"><defs><style>.a,.o,.r,.s{fill:none}.b{fill:#7c746d}.c{fill:#938980}.d{fill:#afa49a}.e{fill:#1b1b20}.f{fill:#273143}.g{fill:#0c73b4}.h{fill:#16509b}.i{fill:#eabc87}.j{fill:#d7aa79}.k{fill:#f3f6f7}.l{fill:#c62f18}.m{fill:#f3c600}.n{fill:#dc94b2}.o,.r,.s{stroke:#603604;stroke-linecap:round;stroke-miterlimit:10}.o{stroke-width:.5px}.p{fill:#dd9a76}.q{fill:#603604}.r{stroke-width:1.242px}.s{stroke-width:.783px}.t{fill:#1e1c10}.u{fill:#e1e1e1}.v{clip-path:url(#a)}.w{fill:#e2e2e1}.x{clip-path:url(#b)}.y{fill:#8e9cad}.z{fill:#617179}.aa{fill:#39485d}.ab{fill:#9eaaaa}</style><clipPath id="a"><ellipse class="a" cx="156.6" cy="148.9" rx="14.4" ry="13.5"/></clipPath><clipPath id="b"><ellipse class="a" cx="88.8" cy="152.8" rx="13.8" ry="12.7"/></clipPath></defs><path class="b" d="M303 357v.1H11.9l-.2-9.7v-5.5l-.4-20.5-1-60a13.8 13.8 0 0 1 13.6-14h.7l7.6-.2h4l56.8-1h6.3l2.3-.1h.5l21.3-.4 9.2-.1 11.8-.2 18.3-.3 15.7-.3h3l8.2-.2 27.7-.4 47.6-.8 22.4-.4a13.8 13.8 0 0 1 14 13.6l.7 39.1.8 50z"/><path class="c" d="M305 357.1H15.6l-.7-41.1-.9-53A13.5 13.5 0 0 1 26 249.4h1.4l5-.2h3.4l24.9-.4 35-.6h5l.9-.1 17.1-.3 40.2-.6 19.5-.4h3.5l6.1-.1h.5l31.3-.5 45-.8 25-.4a13.5 13.5 0 0 1 13.7 13.3l.6 40 .2 10.8v3.1l.5 28.8.2 12.7z"/><path class="d" d="M293.7 357.1H23.8l-.8-50.7-.4-21.1v-.2l-.2-14a12.4 12.4 0 0 1 12.1-12.6h7.7l22.5-.5 22.3-.3h.1l8.5-.2h4.5l3.2-.1 9.3-.1 21.3-.4 45.9-.8h8.1l1.5-.1 5.5-.1h2.3l14.9-.3 17.5-.3 25.6-.4 24.5-.4a12.4 12.4 0 0 1 12.5 12.1l.3 14.3v4.1z"/><path class="c" d="M293.7 357.1H23.8l-.8-50.7-.4-21.1v-.2a11.8 11.8 0 0 1 11.6-11.8l7.1-.1h1.9l11.2-.2 7.1-.1 8.6-.2H75l4-.1 7.9-.1 9.1-.2h.8l9.9-.2 68.7-1.1h5.1l1.5-.1h1.1l5.1-.1h3.2l5.7-.2h3.4l16.2-.3 11.4-.2h4l10.8-.2h.3l20-.3h1.4l10.7-.2h2l3.3-.1a11.8 11.8 0 0 1 12 11.6v4.1z"/><path class="e" d="M276.9 196c0-2.5 2.6-5.1 2.6-13a8.4 8.4 0 0 0 9.2 3c-1.6 0-4-3.5-6.2-7.2a36.3 36.3 0 0 0-4.6-8.5c-2.4-3.2-5.5-5.6-9.4-5.6a9.9 9.9 0 0 0-2 .2l5.2-10.4s-5.2 5.2-7.8 2.6c0 0 0-7 6.6-7.7 9 5.1 18.1.3 14.2.4-5 .1-9.3-4.1-12.3-12.4-2.4-6.5-17-16.9-22.7-20.8 0-3.5 1.2-8 1.2-11.5 0-5-5-22.5-12.5-25.8-.3-3.6 3.6-.8 7.6 0 6 .2 7.2 11.2 7.4 17v3.6s10-18.2 4.3-26.3c-14.7-16.5-35.4-4.9-35.4-4.9-2.6 2.6 2.6-23.4-28.6-31.2-10.4-7.8-15.6-13-18.2-18.2a35.5 35.5 0 0 0-6.8-10s-.6-2.3-4.9-4.7-12-4.6-26.4-4.6c-22.1.3-33.3 6-36.9 15.6l.3-.4a14.6 14.6 0 0 0-.7 1.5 57.3 57.3 0 0 1 10.4-6.8c4.2-1.3 8.8-1.7 11.7.3 0 0-10.4 5.2-10.4 7.8-2.6 0-28.6-2.6-41.6 10.4S54.6 54.4 54.6 57s0 5.2-5.2 2.6a22 22 0 0 0-12-7.3 6.4 6.4 0 0 0-1.8-.4c-6.3-1.4-11.3-.8-8.4-.6 1.9.1 4.1 1.6 6.1 3.4a7 7 0 0 1 .5 2.3v1.1a26.9 26.9 0 0 0-4.1-.8C4.7 57.5 13 77.8 13 77.8c.9 0 1.2-2 1.9-4.7l2.8-6.5A19 19 0 0 1 30 63c-.2 1 .3 2.7-1.4 4.4-2.6 2.6-7.8 2.6-7.8 5.2 0 1.7 2.2 0 4.5-.5 2.5 0 3.3.5 3.3.5l-5.2 5.2c-2.6 2.6-7.8 5.2-5.2 7.8s2.6 5.2 2.6 7.8 0 10.4-2.6 10.4-7.8 10.4-5.2 15.6c2.6 2.6 2.6 2.6 2.6 5.2v1.7a36.1 36.1 0 0 0-3.9 6.3c-1.9 4-.4 7 1.6 9.1-2.9 1-7.3 2.5-5.5 11.5-.8 12.5 2.2 13.8 4 13.5-12 5.1-6.6 18-6.6 18.3 0-4.5 8.6-10.5 14.3-14a4 4 0 0 1 1.3.4c2.6 2.6 5.2 7.8 2.6 10.4s-7.8 7.8-7.8 15.6c0 7 2.1 11.9 2.5 16.5a8.3 8.3 0 0 0 .1 1.7 9.1 9.1 0 0 0 .2 1.7c.4 10.5-15 5.4-15.7 5 5.3 16.4 18.1 6.3 21.4 9.3a16.4 16.4 0 0 0 .5 15.7 20.7 20.7 0 0 0 1.3 2.1 31.2 31.2 0 0 0 8 7.8c.7.7.1-.5-.8-2.7a41.8 41.8 0 0 1-.8-5.3l-.1-2c-.2-3.6.1-6.8 1.2-8.5a7.5 7.5 0 0 1 4.2-2.8c1.4 1 1.4 2.3 1.4 5.7a23.7 23.7 0 0 0-2.7 5.5 19 19 0 0 0-.6 2c-1.3 5.4.3 8.5 3.3 2.9a5.1 5.1 0 0 1 4-1c1 1 1 3.3.3 5.6a7 7 0 0 0-1.1 1.8 12.6 12.6 0 0 0-.6 1.4 15 15 0 0 0-1.1 5.3 20.2 20.2 0 0 0 .8 8c.6 1.5 1.2 2.2 1.4 1.6a4.2 4.2 0 0 1 .5-1.5c1.3-2.7 5.2-6.6 9-9.8 2.2 2.2 4.2 3.9 2.4 9.4l-.2.2c-8 6.7-10.4 14-9.4 13.3 3-2 5.2-2.3 6.9-1.6.6.3 1.2.7 2.2 2.7l.5 1a16 16 0 0 0 1.7 2.7 17.3 17.3 0 0 1 .5 1.9l1.2-.2a3.5 3.5 0 0 0 1.8.8l20.2 1.1 1.5.1 5 .3 46.3 2.7 8.5.6 6.9.4 25.3-8.7 1.3-.5h.3l9.2-3.2 5.4-1.9 9.6-3.2 10.9-3.8 5.7-2 5.8-2 6.6-2.2 3.7-1.2 11-3.8c8.5 1.2 18.2 2.2 18.8.5a25.2 25.2 0 0 1 1.3 2.8l.8 1.9a8.7 8.7 0 0 0 .6-2 9.6 9.6 0 0 0-.6-6c-1.3-2.6-4.2-5.5-10.4-7.6l1.7-1c2.8-1.6 8.1-5.3 9.4-9.5a6.2 6.2 0 0 0 .3-2 5.9 5.9 0 0 0-1-3.1h-5.2c-2.6 0-5.2-7.8-2.6-7.8 2.5 0 9.9 2.4 10.3 2.6a64 64 0 0 0-18.1-13c6.2 0 21.7 9.2 20.4 6.7s2.3-4.5 3.7-6.1 7.3 10.7 7.3 10.7 2.3 4-4.3-13.2a43.5 43.5 0 0 0-8.3-15.4l-.6-1s-5.2-10.3-7.8-13l-1.7-2.4c-1-4-1.6-8.1-2-10.5a28 28 0 0 1 16.7 26s2.5-18-5.1-25.9l3 .8c3.1 1.5 7.3 5.8 7.3 17.3zM251.3 144a6.7 6.7 0 0 0 1.4-3.8c0-5.5 3.7-3.4 10.9 2.6a23.8 23.8 0 0 0 2.7 3.4l.2.6a50.1 50.1 0 0 0 2.3 1.6 46.4 46.4 0 0 0-12.7-1.6 5.6 5.6 0 0 1-4.8-2.8z"/><path class="e" d="M100.1 16.7l.4-1.1a1.5 1.5 0 0 0-.4 1.1z"/><path class="f" d="M75.9 241.2a39.6 39.6 0 0 0 2.6-7.4 10 10 0 0 0 .1-3.5c0-.3 0-.5-.2-.8l-.3-.7-.4-.6-.6-.8a17.6 17.6 0 0 1-3-8 15.6 15.6 0 0 1 0-4.3 7.2 7.2 0 0 1 1.8-3.9 9.3 9.3 0 0 0-.3 4 21.2 21.2 0 0 0 .8 3.7 23 23 0 0 0 3.2 6.7l.5.8.7 1.1.4 1.2a8.1 8.1 0 0 1 .2 1.2 10.3 10.3 0 0 1-.7 4.5 17.5 17.5 0 0 1-4.8 6.8zM64 194.5a15.2 15.2 0 0 1-.8 10.4 19.3 19.3 0 0 1-2.7 4.6 25.1 25.1 0 0 1-3.8 3.7l-4.1 3a49.2 49.2 0 0 0-3.9 3.2 25.3 25.3 0 0 0-3.3 3.6 14.3 14.3 0 0 0-1.3 2.2 9 9 0 0 1-1.2 2.2 3.1 3.1 0 0 0 .3-1.2l.3-1.3a13.1 13.1 0 0 1 1-2.4 20.2 20.2 0 0 1 2.9-4.4 25.6 25.6 0 0 1 1.8-1.9 36 36 0 0 1 2-1.7l4-3.1a23.4 23.4 0 0 0 6.4-7.3 19.3 19.3 0 0 0 2.4-9.6zM62.8 128.8a21 21 0 0 1 1.8 6.4 16.8 16.8 0 0 1-.7 7 10.5 10.5 0 0 1-.7 1.6 8.7 8.7 0 0 1-1 1.6l-.5.8-.6.7a11.8 11.8 0 0 1-1.3 1.2 19.4 19.4 0 0 1-6.2 3.5 27.5 27.5 0 0 1-3.4.9l-3.2.5a27.2 27.2 0 0 0-5.9 1.7l-3.1 1.2a27.2 27.2 0 0 0-3 1 6.1 6.1 0 0 0-2 2l-1.9 2.8 1-3.2a12.9 12.9 0 0 1 .8-1.6 5.3 5.3 0 0 1 1.2-1.4 23.8 23.8 0 0 1 3-1.8l2.8-1.5a23 23 0 0 1 6.5-2.4 59 59 0 0 0 6.1-1.5 18.7 18.7 0 0 0 5.2-2.8 8.6 8.6 0 0 0 1.1-1c.2 0 .4-.2.6-.4l.4-.5a7 7 0 0 0 .5-.6l.3-.6a7.7 7.7 0 0 0 .7-1.2 18 18 0 0 0 1.5-6 34.8 34.8 0 0 0 0-6.4z"/><path class="g" d="M337.8 357.1H0l.3-1.2.1-.7.2-.6.2-1.2.1-.4.2-.9.2-.6.3-1.3.1-.6.4-1.6.6-2.2v-.4l.3-.8.1-.7v-.1l.1-.2a16.5 16.5 0 0 1 .6-2.2 2.5 2.5 0 0 1 0-.3v-.1l.2-.5.1-.4.1-.3c0-.4.2-.7.3-1v-.4l.2-.4c0-.4.2-.8.3-1.1l.6-2.4.2-.6.1-.4.4-1.3.6-2.4.2-.4a85.8 85.8 0 0 1 4.2-8L15 316a77.6 77.6 0 0 1 8-9.6 72.9 72.9 0 0 1 31.2-19l1.6-.4a58.5 58.5 0 0 0 12.7-12.7l1.7-1.6a70.4 70.4 0 0 1 11.5-8.6 76.6 76.6 0 0 1 8.6-4.5 54.4 54.4 0 0 1 5.4-2l.3-.2a12.2 12.2 0 0 0 2.3-.7 117.6 117.6 0 0 0 4.6-1.8l2-1h.1l13.7-6c1.5-.8 3.1-1.5 4.8-2.2l2.5-1c14.3-6.3 31-12.9 44.7-15.5a62.2 62.2 0 0 1 8.6-1l2.7-.1a25 25 0 0 1 6 .8 61.4 61.4 0 0 1 9 3l1.5.6 1.2.6a.6.6 0 0 1 .2 0l.9.5 1.9 1h.2l1.1.7.2.1a.8.8 0 0 1 .1 0l2 1.2.4.2.4.3a59.8 59.8 0 0 1 6 4 101 101 0 0 1 4.3 3l.4.4 1 .8 1 .9.5.4c3.2 2.7 6 5.2 8 7.3l.5.5 1 1 1 1 .6.7.6.6.1.2.3.3 1 1.2h.1v.1h2.5l.3.1c.9 0 1.9 0 3 .2h1.6l3 .3 1.1.1a.5.5 0 0 1 .2 0l1.5.2h.7l1.5.3a137.8 137.8 0 0 1 8.5 1.4l1.6.3 1 .2 1.9.4a57.6 57.6 0 0 1 2 .6 70.8 70.8 0 0 1 8.4 2.8l1.6.7 1.6.7.4.2 1.3 1.3c5.8 5.6 11 10.9 15.4 15.7q5.3 5.7 9.5 10.7a135 135 0 0 1 4.4 5.5l1.7 2.1 2.1 2.9 1 1.2.7 1.2 1.6 2.2.3.4 2.6 4 .3.3 2.7 4.6a113.6 113.6 0 0 1 3.4 6.1l1.1 2.4a98.2 98.2 0 0 1 2 4.4l.1.6a86.4 86.4 0 0 1 2.5 6.8c0 .5.2.8.3 1.2a66.8 66.8 0 0 0 1 2.7 10.5 10.5 0 0 0 1 2l.3.3a3.3 3.3 0 0 1 .2.3 64.2 64.2 0 0 1 6.5 10.2z"/><path class="h" d="M178.5 244.2s14.1 2.3 17.2 7.7c-5.5 5-11.5 6-14.9 5s-2.3-12.7-2.3-12.7zM105.4 357.1H102a29 29 0 0 0-7.1-18.2c-12.7-4.3-21.2-23.3-21.2-23.3-2.1-2.1-8.5 2.1-17 4.2-10.5 4.3-29.5 4.3-29.5 4.3s10.5-12.7 10.5-14.8c14.9-10.6 40.3-8.5 40.3-8.5l2-6v-.4c-1.3-2.6 3.2-13.6 6.8-22 2-4.9 3.8-9 3.8-9.7-2.8 0-7.5 4.8-11.7 9.9-5 6-9.4 12.4-9.4 11.3-.9-1.8 1.8-6.4 5.4-11.3 2.1-3 4.6-6 6.7-8.5l4.8-5.6.7-.8c4-4.5 8-3.3 11.1-1l.9.8.8.8a24.2 24.2 0 0 1 3.4 4.4l-.6.9-1.2 1.8-4.8 6.9-4.9 6.9-.1.2c-4.4 6.2-8.6 12-9.5 13l-.7 2.4c-7.2 27.5 2.8 33.6 5 35.6 15 7.6 18.3 18.5 18.9 26.7z"/><path class="h" d="M100 250s-11 4-13.6 8.5c0 0 16.7 4.8 17.2 5.5s.1-12-3.5-14z"/><path class="e" d="M250.4 295.5s-6.4 2.1-25.4 0c-5.3 0-11.6-.4-17.3-.8a3 3 0 0 1-.4 0l-6.1-.5-8-.8a29.3 29.3 0 0 0-4.2 14.8c-2 6.3-4.2 21.2-12.7 36a73.8 73.8 0 0 0-3.4 13h-3.3a84.7 84.7 0 0 1 2.5-11 90.9 90.9 0 0 1 4.2-10.5c-.4.4-12.9 13-16.3 21.4h-27.7l-.8-15.5-1.7-35.5 8.3-5.7 3.2-2c9.7-6.3 23.3-14.6 32.7-18.1a36.7 36.7 0 0 1 4-1.4h.1l1.2-.2a10.3 10.3 0 0 1 2.8-.2 3.9 3.9 0 0 1 .6 0l1.6.4a1.7 1.7 0 0 1 .3 0l3 .5 11.7 1.9a301.5 301.5 0 0 1 45.8 11c0-1.9 0-15.8-2.3-22.4a10 10 0 0 0-.9-2 20.3 20.3 0 0 1 1.2 2 68 68 0 0 1 7.3 25.6z"/><path class="i" d="M188.4 254.7l-.5 1.3-.2.6-1.9 5a43 43 0 0 1-2 5.2 14.3 14.3 0 0 1-.8 4c-.1.7-.4 1.3-.6 2l-.3.5a38.8 38.8 0 0 1-2.8 5.4l-.1.1a46.4 46.4 0 0 1-2.5 3.5 21 21 0 0 1-1.4 1.7c-.7.7-.7 2.3-.4 4.3v.5l.1.5a2.5 2.5 0 0 1 0 .2c.7 3.4 1.9 7.4 2.3 10.2a10.5 10.5 0 0 1 0 1.5c1.5 14.7-5 28.3-11.9 37.6l-1.2 1.6-1.2 1.4a45 45 0 0 1-6.8 6.6 24.8 24.8 0 0 0-6.1 8.7h-31.2l-.2-.3a115.9 115.9 0 0 0-15.7-21.5l-1.8-1.9a67.6 67.6 0 0 1-14.8-38.3v-.4c0-6.7 2.5-11.1 5.3-15.3l.1-.2a62.3 62.3 0 0 0 4.1-6.9 22.9 22.9 0 0 0 2-5.6l1.1-4.4a2.5 2.5 0 0 0 0-.3l1-3.7.1-.8v-.3l.3-1.3.4-2.5.2-1.1v-.4l.1-.4v-.4l.1-.6.2-1.2.1-1.2.1-1.7v-.3c.6-8.7-.6-13.4-.6-13.4a54.6 54.6 0 0 0 16.4 9.6l1.5.5 1.6.5 1.7.5 1.3.3 1.7.4.7.1a61.6 61.6 0 0 0 6.7 1 51.9 51.9 0 0 0 4.2.2 49.7 49.7 0 0 0 4.9.1 2.5 2.5 0 0 0 .3 0 1.5 1.5 0 0 0 .2 0 12.1 12.1 0 0 0 2.2-.5l.4-.2h.3l.5-.3.4-.1.7-.2a60 60 0 0 0 4.4-2l.8-.5.5-.2a136.2 136.2 0 0 0 8.7-5.2l.3-.2.9-.6a3.4 3.4 0 0 1 .3-.2l2.3-1.7a72.2 72.2 0 0 0 5.7-4.8c3.8-3.5 6.8-7.3 8.2-11 2.7-2.2 1 5 .4 10-.2 1.7-.3 3.1 0 3.7a.5.5 0 0 0 .5.3l.1 1.2v.3l.4 3v1l.2.7v.5l.2.9.2 1.5.1.7v.5l.2.5v.3l.1.6.1.5.1.4.1.5.1.5.2 1 .2.8.2.8a30.4 30.4 0 0 0 1.1 3.3l.2.3a1 1 0 0 0 0 .2l.2.3.2.5.2.3c0 .2.2.3.3.5a2.7 2.7 0 0 0 .3.4l.2.3a5 5 0 0 0 .6.5 2.3 2.3 0 0 0 .7.4 1 1 0 0 0 .2 0 2 2 0 0 0 .3 0 2.3 2.3 0 0 0 1.3-.4 4.5 4.5 0 0 0 .4-.3z"/><path class="j" d="M179.8 233.4c-5 0-10.2.3-15 .6-9.1 7-19.8 12-23.1 12-7.7 0-16-.7-24.3-3.7l-15.8 3.9a91.1 91.1 0 0 1-2.5 15.8c8.4 12 31.7 42.7 47 39.2 10-2.3 20.6-7.3 29-12-.5-2.4-.6-4.4.2-5.2 2-2.2 8.4-10.8 8.4-17.2 1.7-3.4 1.8-4.8 4.7-12.1-5.8 5.1-8.1-16-8.6-21.3z"/><path class="e" d="M210.2 276.7c0 2.5 0 14.9-2.5 17.4s7.4-2.5 7.4-5 0-5 5-7.5a24.6 24.6 0 0 1 9.4-2.2 107.7 107.7 0 0 0-25-15.4 9 9 0 0 1-1.3 0c0 .7-1.3 3.7-3.4 7.7a7.5 7.5 0 0 1 1.3 5.4c.8 1.6 9-3 9-.4z"/><path class="g" d="M182.7 278.6l80.4 67.7 12.4-78.5c-17-8.3-42-8.3-42-8.3s-15.6-18.8-36.7-27.7a7.8 7.8 0 0 1-1 0c.3 2-15 28.3-15 28.3z"/><path class="k" d="M165.4 338.8l-1.2 1.5-1.2 1.5a45 45 0 0 1-6.8 6.6 24.8 24.8 0 0 0-6.1 8.7h-31.2l-.2-.3a115.9 115.9 0 0 0-7.3-11.2l-1-1.4a118 118 0 0 0-7.4-8.9l.9.8s10.6 4.4 27.6 5.5a119.5 119.5 0 0 0 34-2.8z"/><path class="h" d="M230 279.2l-5-22.4-27.3-2.5-5 15 7.5 2.4h10l7.4 5 9.5 2.5h3z"/><path class="h" d="M250.4 295.5s-6.4 2.1-25.4 0c-5.3 0-11.6-.4-17.3-.8a3 3 0 0 1-.4 0l-6.1-.5-8-.8a29.3 29.3 0 0 0-4.2 14.8c-2 6.3-4.2 21.2-12.7 36a73.8 73.8 0 0 0-3.4 13h-3.3a84.7 84.7 0 0 1 2.5-11 90.9 90.9 0 0 1 4.2-10.5c-.4.4-12.9 13-16.3 21.4h-10c2-3.8 4-7 6.2-8.7a45 45 0 0 0 6.8-6.6l1.2-1.5a56.3 56.3 0 0 0 13.2-39.1 10.5 10.5 0 0 0-.1-1.5c-.4-2.8-1.6-6.8-2.2-10.1a2.5 2.5 0 0 0 0-.3l-.2-.5v-.5c-.3-2-.3-3.6.4-4.3a21 21 0 0 0 1.4-1.7l.4-.6 2.1-2.9a11 11 0 0 1 2.9-.3 3.9 3.9 0 0 1 .6 0l1.6.4a1.7 1.7 0 0 1 .2 0l3.1.5 11.7 1.8a301.5 301.5 0 0 1 45.8 11.1c0-1.9 0-15.8-2.3-22.4a10 10 0 0 0-.9-2 20.3 20.3 0 0 1 1.2 2 68 68 0 0 1 7.3 25.6z"/><path class="h" d="M184 296.4l-6.7 3.3s-6.3-17.5-1.4-30.1c4.7-1 8.7 6.2 8.7 6.2z"/><path class="l" d="M11.7 347.3a82.3 82.3 0 0 1-1 9.8H0l.3-1.2.1-.7.2-.6.2-1.2.1-.4.2-.9.2-.6.3-1.3.1-.6.4-1.6.6-2.2v-.4l.3-.8.1-.7v-.1l.1-.2.6-2.2a2.5 2.5 0 0 1 0-.3l.2-.6.1-.4.1-.4.3-.9v-.5l.2-.3c0-.4.2-.8.3-1.1l.6-2.4.2-.6.1-.4.4-1.3.6-2.4h.3s3.7 2 4.4 12.1a51.7 51.7 0 0 1 .1 5.4z"/><path class="m" d="M8.1 357.1h-8c0-.4 0-.8.2-1.2l.1-.7.2-.6.2-1.2.1-.4.2-.9.2-.6.3-1.3.1-.6.4-1.6.6-2.2v-.4l.3-.8.1-.7v-.1l.3-.8.4-1.6v-.4l.2-.5.1-.4.1-.3c0-.4.2-.7.3-1v-.4l.2-.4c0-.4.2-.8.3-1.1l.6-2.4.3-1c2.6 2.6 5.1 8.7 2.2 23.6z"/><path class="n" d="M5.6 357.1H0l.3-1.2.1-.7.2-.6.2-1.2.1-.4.2-.9.2-.6.3-1.3.1-.6.4-1.6.6-2.2v-.4l.3-.8.1-.7v-.1l.1-.2.6-2.2a2.5 2.5 0 0 1 0-.3l.2-.6.1-.4.1-.4.3-.9v-.5l.2-.3c2 2.5 3.4 7.9 1 19.1z"/><path class="h" d="M317.7 349.2l4.5 8h-3.7l-.8-8z"/><path class="h" d="M331.3 346.9a64.2 64.2 0 0 1 6.5 10.2h-8.3l-2.8-9.9c-1-4-11-33-13-31s4 16 4 16l-12.8 21.5-2 3.3v.1h-4.7l4.6-11.4 2-4.7c2.4-6.1 4.5-11.3 4.9-12.8 1-4 0-6-4-12a9.4 9.4 0 0 1-1.4-4 14 14 0 0 1 0-3 25.4 25.4 0 0 1 2.1-8l1.7 2.1 2.1 2.9 1 1.2.8 1.2 1.5 2.2.3.4 2.6 4 .3.3 2.8 4.6a113.6 113.6 0 0 1 3.3 6.1l1.1 2.4 2 4.4.1.6a86.4 86.4 0 0 1 2.5 6.8l.3 1.2a66.8 66.8 0 0 0 1 2.7 10.5 10.5 0 0 0 1 2l.3.3a3.3 3.3 0 0 1 .2.3z"/><path class="g" d="M198.6 248l-14 5.4s-13.3 17.6-5.3 25.3l8.1-6.3z"/><path class="g" d="M199 277.4l-11.4 2s-8.4-2-13.6.9c0 0-.2-14 8.3-23.4 3.7 2.6 10.9 21.1 16.8 20.5z"/><path class="h" d="M216.1 328.7l7.6 7 7-7.7 6.6-.3v1L227 340.2l-5 .3-7.8-7-7 7.7-5.1.2-11.4-10.3v-1.1l6.5-.4 7.7 7 7-7.6 4.2-.2z"/><path class="h" d="M219.8 340.5h1.1l-1.2-1.2v1.2zM229.4 340v-1.3l-1.3 1.4h1.3zM209.3 341v-1.2l-1.1 1.2h1.1zM211.1 337.8l3.3-.2 3.3-.1-3.4-3.2-3.2 3.5zM208.9 331.1l-.1-2.1-9.6.5v.9l5.7 5.1 4-4.4zM199.7 341.4h1.3l-1.3-1.3v1.3zM228.8 329v-1l-9.6.5.1 2.2 4.4 4 5.2-5.7zM195 325.4l-.6 2h-.1l-.7-1.9h-1l-.4 2h-.1l-.8-1.9h-.8l1 2.5h1.3l.4-1.9.6 1.8h1.2l.9-2.6zM198.9 327.2h-2v-.3l1.8-.1v-.6l-2 .1v-.4h2.1v-.6H196l.1 2.6 2.8-.1zM202.1 326.4a.7.7 0 0 0-.3 0 .4.4 0 0 0 .3-.2.8.8 0 0 0 0-.4 1 1 0 0 0 0-.4.4.4 0 0 0-.2-.2.8.8 0 0 0-.3 0H199l.2 2.6 1.8-.1h.8a1.5 1.5 0 0 0 .3-.1.4.4 0 0 0 .1-.2.8.8 0 0 0 .1-.5q0-.4-.2-.5zm-2.3-.6h1.5l.1.1v.2a1.6 1.6 0 0 1-.5 0l-1 .1zm1.7 1.2a.3.3 0 0 1-.1 0h-.4l-1.1.1v-.4h1a2.7 2.7 0 0 1 .5 0l.1.1a.2.2 0 0 1 0 .2zM205.8 325h-.8v.9h-1.7v-.8h-.8l.1 2.5h.8v-1h1.7v.9h.9zM208.5 324.8h-1.2l-1.2 2.7h.9l.2-.5 1.6-.1.3.4h.8zm-1 1.6l.4-1h.1l.5 1zM212.7 326.5h-1.8l-.1-1.8h-.9l.2 2.6 2.6-.2zM215.4 326.4h-1.8v-1.8h-.9l.2 2.5h2.6zM218.4 326.3h-2v-.3l1.9-.1v-.6l-2 .1v-.4h2v-.7l-2.8.2.1 2.5 2.9-.1zM220.9 326.8l1.3-.1v-2.5h-.9l.1 1.9-1.5-1.8h-1.3l.1 2.6h.8l-.1-2zM226.7 325.5h-.8a.5.5 0 0 1 0 .3.4.4 0 0 1-.3.1h-.5a4 4 0 0 1-.5 0 .4.4 0 0 1-.2 0 .3.3 0 0 1-.2-.2 2.2 2.2 0 0 1 0-.4 2.6 2.6 0 0 1 0-.4.3.3 0 0 1 .1-.2.4.4 0 0 1 .2 0h1a.5.5 0 0 1 .3 0 .5.5 0 0 1 0 .2h.8a.8.8 0 0 1 0-.2 1.2 1.2 0 0 0 0-.4.5.5 0 0 0-.3-.3 1.5 1.5 0 0 0-.4 0 6 6 0 0 0-.7 0 7.4 7.4 0 0 0-1.3.1.6.6 0 0 0-.4.3.9.9 0 0 0 0 .3v.7a5 5 0 0 0 0 .6.9.9 0 0 0 0 .3.5.5 0 0 0 .3.2 1.6 1.6 0 0 0 .5.1h1a4.8 4.8 0 0 0 1-.1.6.6 0 0 0 .3-.3 1.2 1.2 0 0 0 .1-.5v-.2zM230.4 325a3.5 3.5 0 0 0-.1-.8.6.6 0 0 0-.6-.4 11 11 0 0 0-1.1 0l-1.1.1a.6.6 0 0 0-.6.5 3.3 3.3 0 0 0 0 .8 4 4 0 0 0 .1.9.6.6 0 0 0 .6.3 11.1 11.1 0 0 0 1.1 0 10 10 0 0 0 1.1 0 .6.6 0 0 0 .6-.5 4.2 4.2 0 0 0 0-.9zm-.8.5a.3.3 0 0 1 0 .1.4.4 0 0 1-.3.1h-.6a5.3 5.3 0 0 1-.7 0 .3.3 0 0 1-.3-.1 2.7 2.7 0 0 1 0-.9.2.2 0 0 1 .2-.1 4 4 0 0 1 .7-.1 5.4 5.4 0 0 1 .7 0 .3.3 0 0 1 .2 0 .4.4 0 0 1 0 .3l.1.3a2.8 2.8 0 0 1 0 .4zM233.8 326v-.5a.5.5 0 0 0 0-.2.4.4 0 0 0-.4-.1.7.7 0 0 0 .3-.1.4.4 0 0 0 .1-.3 1.6 1.6 0 0 0 0-.4 1.6 1.6 0 0 0 0-.4.4.4 0 0 0-.3-.3.7.7 0 0 0-.2 0h-2.7l.1 2.6h.8v-.7h1.4a.2.2 0 0 1 .1 0 .3.3 0 0 1 0 .1l.1.3v.2h.8zm-.8-1.2a.2.2 0 0 1-.1.1 2.2 2.2 0 0 1-.4 0h-1v-.5h1l.3-.1a.2.2 0 0 1 .1 0 .1.1 0 0 1 .1.1.4.4 0 0 1 0 .2.5.5 0 0 1 0 .2zM237 323.7a.7.7 0 0 0-.6-.2 2.4 2.4 0 0 0-.4 0h-.2l-1.8.1.2 2.5h.7v-.6h1a4.9 4.9 0 0 0 .6-.1 1 1 0 0 0 .4-.1.4.4 0 0 0 .2-.2 1.5 1.5 0 0 0 0-.7 1.3 1.3 0 0 0-.1-.7zm-.7 1a.3.3 0 0 1-.1 0l-.4.1h-1v-.6h1a1.8 1.8 0 0 1 .4 0 .2.2 0 0 1 .1 0 .4.4 0 0 1 0 .2.6.6 0 0 1 0 .2zM196.2 344c-.3-.1-.4-.2-.4-.4 0 0 .1-.2.4-.3a1 1 0 0 1 .4.1v-.3a1.1 1.1 0 0 0-.4 0 .7.7 0 0 0-.8.6c0 .3.3.5.6.6.3.1.4.2.4.4s0 .3-.3.3a1.1 1.1 0 0 1-.6-.1v.3a1.4 1.4 0 0 0 .5.1c.6 0 .9-.3.9-.7 0-.3-.3-.5-.7-.6zM197.6 343h-.5l.2 2.2h.4zM199.8 342.9h-.4v.8a8.3 8.3 0 0 0 .1.9 7 7 0 0 0-.4-.7l-.6-1h-.5l.1 2.3h.4v-.8l-.1-1a8 8 0 0 0 .4.8l.7 1h.4zM202 343.8h-.7v.3h.4v.6a.8.8 0 0 1-.3 0 .8.8 0 0 1 0-1.6 1 1 0 0 1 .5.1v-.3a1.4 1.4 0 0 0-.5-.1 1.1 1.1 0 0 0-1.2 1.2 1 1 0 0 0 .3.8 1.2 1.2 0 0 0 1 .3 2.1 2.1 0 0 0 .6-.2zM204.2 342.7h-.4v1.3c0 .4-.1.6-.4.7-.3 0-.5-.2-.5-.7v-1.3h-.5l.1 1.3c0 .7.4 1 .9 1s.9-.4.8-1zM206 344.5h-.9v-1.9h-.5l.2 2.3h1.3zM207.3 342.5h-.5l-.6 2.3h.4l.2-.7h.7l.2.6h.5zm-.5 1.3l.2-.5v-.4l.2.4.2.5zM209.9 344a.6.6 0 0 0-.4-.4.6.6 0 0 0 .4-.6.6.6 0 0 0-.2-.4 1 1 0 0 0-.7-.2 4.3 4.3 0 0 0-.6.1v2.2h.5v-1h.2c.2 0 .3.2.4.4a3 3 0 0 0 .1.5h.5a4.3 4.3 0 0 1-.2-.6zm-.8-.5h-.3v-.7a1.8 1.8 0 0 1 .3 0c.2 0 .4 0 .4.3 0 .2-.2.3-.4.4zM210.7 342.4h-.4v2.2h.5zM212.6 342.6v-.3h-1.7v.4h.7v1.9h.5l-.1-2zM214.6 342.2h-.5l-.2.6-.2.4a9 9 0 0 0-.2-.4l-.3-.5h-.5l.8 1.2v1h.4v-1zM216.6 343.1a.5.5 0 0 0 .4-.5.5.5 0 0 0-.3-.4 1.2 1.2 0 0 0-.6-.1 2.7 2.7 0 0 0-.6 0l.1 2.3h.5a1.2 1.2 0 0 0 .8-.3.6.6 0 0 0 .2-.4.6.6 0 0 0-.5-.6zm-.7-.7a2.1 2.1 0 0 1 .2 0c.3 0 .5 0 .5.3 0 .2-.2.3-.4.3h-.3zm.3 1.7h-.2v-.8h.2c.2 0 .5.1.5.4 0 .2-.2.4-.5.4zM218.8 343.9h-1v-.6h.9v-.4h-.8v-.5h.8v-.4h-1.3l.1 2.3h1.4zM221 342.9h-.9v.4h.5v.5a.7.7 0 0 1-.3 0 .7.7 0 0 1-.8-.7.8.8 0 0 1 .7-.9 1.2 1.2 0 0 1 .5.1l.1-.3a1.5 1.5 0 0 0-.6-.1 1.1 1.1 0 0 0-1.2 1.2 1 1 0 0 0 .4.8 1.2 1.2 0 0 0 .9.3 2.3 2.3 0 0 0 .7-.2zM221.7 341.9h-.4l.1 2.2h.4zM224 341.8h-.4v1.7a6.8 6.8 0 0 0-.3-.8l-.7-.9h-.4v2.3h.5v-.9l-.1-.9.4.7.6 1h.4zM225.2 342.6c-.3 0-.4-.2-.4-.3 0-.1 0-.3.3-.3a1 1 0 0 1 .5 0v-.3a1.3 1.3 0 0 0-.5 0c-.5 0-.7.3-.7.6 0 .4.2.5.6.7.3 0 .4.1.4.3 0 .2-.1.3-.4.3a1.1 1.1 0 0 1-.5 0l-.1.3a1.3 1.3 0 0 0 .6 0c.6 0 .8-.3.8-.6 0-.4-.2-.6-.6-.7zM228.6 341.5h-.5v1h-.8l-.1-.9h-.4l.1 2.2h.4v-1h.9v1h.5zM230.4 343.3h-.9v-.6h.8v-.3h-.8v-.6h.8v-.3H229l.1 2.2h1.4zM232.2 343a.6.6 0 0 0-.3-.4.6.6 0 0 0 .3-.6.6.6 0 0 0-.2-.5 1 1 0 0 0-.7-.1 4.1 4.1 0 0 0-.6 0l.1 2.3h.4v-1h.2c.2 0 .3.1.4.4a2.7 2.7 0 0 0 .2.5h.4a4.3 4.3 0 0 1-.2-.6zm-.8-.6h-.2v-.7a1.8 1.8 0 0 1 .2 0c.2 0 .4 0 .4.3s-.1.4-.4.4zM234 343.2h-1v-.6h.9v-.4h-.9v-.5h.9v-.4h-1.3l.1 2.3 1.3-.1zM45.3 357.1a42 42 0 0 1-3.2-4.3l-2.8-4.6-2.6-4.6a30.8 30.8 0 0 0-2.9-4.5 12 12 0 0 1 4.2 3.6 35.1 35.1 0 0 1 3 4.5 46 46 0 0 1 2.5 4.8 33.5 33.5 0 0 1 1.8 5.1zM36.8 334.1a39.7 39.7 0 0 1 4.2 5.2 63.7 63.7 0 0 1 3.5 5.6 58 58 0 0 1 2.8 6 36 36 0 0 1 2 6.2l-3.4-5.6-3.2-5.7-3-5.7-2.9-6zM41 357.1a10.7 10.7 0 0 1-2.3-1.4 16.8 16.8 0 0 1-2-1.9 16.6 16.6 0 0 1-1.7-2.1 10.6 10.6 0 0 1-1.2-2.6 10.6 10.6 0 0 1 2.4 1.5 16.6 16.6 0 0 1 2 1.9 16.9 16.9 0 0 1 1.6 2.1 10.7 10.7 0 0 1 1.3 2.5zM253.7 318a138.4 138.4 0 0 1-4 17c-2 7-4.4 14.8-6.7 22.1h-1.4c1.4-8.1 2.8-17.1 4-25.6 2.4-17.4 4-32.4 4-32.4s4 17.8 4 19z"/><path class="e" d="M211.6 175s51-106.2-55.2-136.9c-13.8-3.3-17.4 0-20.5 1.7.1-.4-49.4-14.4-78.9 34.3-17.8 31.7-5.2 83.5 7.3 105.8 5.3 7 147.3-5 147.3-5z"/><path class="e" d="M56.6 178s-8.2-28.8-3.6-40 14.8 31.1 15.4 34.9-11.8 5-11.8 5zM209.2 71.6s16 16.9 21.1 40c.9 1.4-7.2-1.7-10.5-6.6s11 6 15.2 27.4c3.4 15.7-4.7-6-7.6-7.4s4.6 27.5 2.5 37.6c0-1.6-4.7-8.5-7.4-10s-2 23.9-6.5 23.1-8-12.1-6.8-23.2 0-80.9 0-80.9z"/><path class="i" d="M69.7 202.1s-19-5.9-11-29.4c4-7.7 12.3-3.4 12.8-1.4s1.3 27.6-1.8 30.8z"/><path class="i" d="M69.7 202.1s-19-5.9-11-29.4c4-7.7 12.3-3.4 12.8-1.4s1.3 27.6-1.8 30.8z"/><path class="i" d="M205.4 168.5a3.7 3.7 0 0 0 .2-.4c1.4-3.6 11.1-31.9 8.9-49.7s-4.9-67.9-79.8-67.9c-44 0-79.7 29.7-79.7 66.3v2.1c0 2.4 0 4.6.2 6.5.5 11 2.6 32.2 11.4 44a121.7 121.7 0 0 1 2.6 26l-.2 6.5c3 17.7 5.3 22.8 8.5 28.7S92 246 99 250.6c6.4 4.6 19.4 9.7 24.9 8.4 22.5-3.3 43.1-16.5 43.1-16.5 11.3-7.3 14.5-14 15.4-15.5a36.9 36.9 0 0 0 4-10.2c2.2.4 23.2 6.4 29.8-27.4 1.5-9.2.8-23.1-10.9-20.9z"/><path class="j" d="M55 116.8v2.1c0 2.4 0 4.6.2 6.5.5 10.7 2.5 31 10.7 43-2.5-.3-5.3.7-7.1 4.3-7.2 20.9 7 27.8 10.3 29.2 2.8 17.7 5.2 22.8 8.4 28.7S92 246 99 250.6a45.1 45.1 0 0 0 5.8 3.4c-12.4-15.2-27-45.6-15.9-99.2 5.7-41 1-70.8-2.3-77-.7-1.2-5.3-2.7-12.4-4.2A60 60 0 0 0 55 116.8z"/><path class="o" d="M205.4 168.5a3.7 3.7 0 0 0 .2-.4c1.4-3.6 11.1-31.9 8.9-49.7s-4.9-67.9-79.8-67.9c-44 0-79.7 29.7-79.7 66.3v2.1c0 2.4 0 4.6.2 6.5.5 11 2.6 32.2 11.4 44a121.7 121.7 0 0 1 2.6 26l-.2 6.5c3 17.7 5.3 22.8 8.5 28.7S92 246 99 250.6c6.4 4.6 19.4 9.7 24.9 8.4 22.5-3.3 43.1-16.5 43.1-16.5 11.3-7.3 14.5-14 15.4-15.5a36.9 36.9 0 0 0 4-10.2c2.2.4 23.2 6.4 29.8-27.4 1.5-9.2.8-23.1-10.9-20.9z"/><ellipse class="p" cx="163.1" cy="170.3" rx="8.1" ry="4.7" transform="rotate(-6 163 170.3)"/><ellipse class="p" cx="81.2" cy="172.2" rx="4.2" ry="6.9" transform="rotate(-85 81.2 172.2)"/><path class="j" d="M118.2 226.8a19.2 19.2 0 0 0 9.2-.8s-1.3 5-2.4 5.5-4.8-.8-6.8-4.7z"/><path class="q" d="M109.7 149.8s3.6 4.8 2.2 10.4l-3.6 13.5c-.5 2-2 5.3-.3 8.2 0 0 2.8 5.6 2.9 5.5 0 0-2.3-1.3-4.2-5.5-1.1-2.7-1-4.4.5-9.2 1.3-4 2.8-9.8 3-11.3s2.2-5-.5-11.6zM123 187.8a5 5 0 0 0-2.9-3.5c-.9-.5-1.4 1-.8 1.4s1.5 0 2.9 1.7c.3.6.3.6.7.4z"/><path class="r" d="M103.7 212.7s17.2 3.3 38.3-3"/><path class="s" d="M127.4 226a19.2 19.2 0 0 1-9.2.8"/><path class="r" d="M209.6 180.5s-7.4-1.5-17.5 21M202 196.5s4-9 0-11.5"/><path class="t" d="M134 132.2s14.4-14.8 41.9-8.7c2.2.9 4.7 2 2.2 1.8S150 122 133.8 135c-2 1.4-4.4.7.1-2.8zM102 134.2s-12.1-12.5-32-2.5c-1.5 1.2-3.3 2.7-1.4 2.1s20.6-7.2 33.7 3.2c1.5 1.1 3.3 0-.4-2.8z"/><path class="e" d="M168.2 70.7s3.6 42.5 27.7 63.7c10.1 12 2.5 42-1.6 45.7-.8 1.5 6.3 1.4 6.4 0-.3-1-2-6.6 4.9-12 1.2-3.5 37-68.5-20.5-108.9-28.2-12.7-17 11.5-17 11.5z"/><path class="e" d="M167.8 80.4S130.6 95 119.3 112c-1.7.9 7.6-18.3 17.7-23.6 0 0-29 16.6-35.4 33.8-2.5-1.3-.8-20.9 13.7-29.3.6-.5-32.3 16.9-38.4 29.3-.6 0 4.4-26.2 19.2-29.8 0 2.2-29.1 15.6-37.5 33.8.8-1.3 1.9-23.6 14.4-29.3.3-2.7-29.2 23.1-30.9 40.9-2.5-.4-3.8-67.6 68.3-81.9 34.2-1.8 76.8 1.8 70 20.5s-12.6 4-12.6 4z"/><path class="e" d="M95.8 47.3S58.1 50.6 40 100c-.4.5 4.6-4 7.2-4.9 1.9.4-17.8 16.4-7.2 50.3 1.3-.4 3.4-5.6 4.6-6.8s-2 23.7 2.6 30.2c.4-.7 13.4-62.4 39.6-75.8 15.6-9.4 9-45.7 9-45.7z"/><path class="e" d="M72 66.2s54-35.5 100.9-15.7C184.3 63 190 63.3 181 66.2s-102.7 7-109.2 0z"/><ellipse class="u" cx="156.6" cy="148.9" rx="14.4" ry="13.5"/><path class="t" d="M156.6 138a14.4 14.4 0 0 1 14.3 13.1 13.7 13.7 0 0 0 .3-2.6 14.7 14.7 0 0 0-29.3 0 13.7 13.7 0 0 0 .3 2.6 14.4 14.4 0 0 1 14.4-13z"/><g class="v"><ellipse class="t" cx="155.4" cy="150.3" rx="8.4" ry="11.2"/><ellipse class="u" cx="160.3" cy="148.6" rx="2.6" ry="3.2"/></g><path class="t" d="M149.7 136s-2.4.8-4.4-2.3a3.2 3.2 0 0 0 1.7 3.6c.8.3-2 1.8-5-.4a3 3 0 0 0 2.9 2.8c.8-.1 4.7-2.7 4.8-3.8z"/><ellipse class="w" cx="88.8" cy="152.8" rx="13.8" ry="12.7"/><path class="t" d="M88.8 142.5a13.7 13.7 0 0 1 13.8 12.4 12.7 12.7 0 0 0 .2-2.5c0-7.4-6.3-13.4-14-13.4s-14 6-14 13.4a12.8 12.8 0 0 0 .2 2.5 13.7 13.7 0 0 1 13.8-12.4z"/><g class="x"><ellipse class="t" cx="87.7" cy="154.1" rx="8" ry="10.5"/><ellipse class="w" cx="92.3" cy="152.5" rx="2.5" ry="3"/></g><path class="t" d="M82.2 140.5s-2.2.7-4.2-2.2a3 3 0 0 0 1.6 3.4c.7.3-1.9 1.7-4.8-.3a2.8 2.8 0 0 0 2.8 2.7c.7-.2 4.6-2.6 4.6-3.6z"/><path class="e" d="M229.6 148.8s6 30.4 0 40.8-12.8-28.2-12.8-28.2 1.4-17.4 12.8-12.6zM209.6 168.5s-6.8-1.7-8.7 7.3c-.6 6.5 4.2 10.7-21.7 20.7-.3.2 24.6-18.9 14-31-8.4-10.7 4.1-24.5-4.8-39.1s22.8-1.1 22.8-1.1.9 41-1.6 43.2z"/><path class="e" d="M163 76s-17.3 38.2 22.4 59.4c4.3.4 4.8 8-5.1 23.2 0 15.8 11.2 12.4 0 25.8s14.2-6.6 22.6-29.6-7.1-74-39.8-78.9z"/><path class="e" d="M182.4 133.7s9.8 3.1 1.8 14.3c-6.8 11-7.8 15-5 21.7s-2.3 27.4-12 29.9c1-.5 20.8-2 31.4-13.5 4.8-10.5 2.8-19 4.3-22.3s-5-25.4-7.6-27-9.1-4.5-12.9-3.1z"/><path class="e" d="M190 192.5s-10.5 18.2-11.7 23.4c.5 2.2-5-14.2 6.8-25.1s5 1.7 5 1.7z"/><path class="f" d="M48.1 170.5a147 147 0 0 0-12 8.8 51 51 0 0 0-5.3 5 22.5 22.5 0 0 0-4 5.7 10.3 10.3 0 0 0-.8 3.1 9.7 9.7 0 0 0-.1 1.6 10.5 10.5 0 0 0 .2 1.5l.1.8.3 1 .5 1.8.9 3.7a43.5 43.5 0 0 1 .9 7.7 23.2 23.2 0 0 1-.3 3.9 12.5 12.5 0 0 1-.5 1.9 3.9 3.9 0 0 1-1 1.6 4 4 0 0 0 .5-1.8 12.2 12.2 0 0 0 0-1.8 26.9 26.9 0 0 0-.4-3.6 67.6 67.6 0 0 0-1.9-7.2l-1.1-3.5-.7-1.8-.3-.8-.3-1a12.4 12.4 0 0 1 .9-8.5 22.6 22.6 0 0 1 4.7-6.6 39.8 39.8 0 0 1 6-4.9 53.2 53.2 0 0 1 13.7-6.6zM62.3 71.7c4.5-2 9-3.7 13.5-5.3l13.5-4.7 13.5-4.5 6.5-2.6a33.6 33.6 0 0 0 6.3-3.3 20 20 0 0 1-5 5.3 47.8 47.8 0 0 1-6.3 4 88.5 88.5 0 0 1-13.5 5.6 120 120 0 0 1-14 3.7 86.3 86.3 0 0 1-14.5 1.8zM136.8 83a55.8 55.8 0 0 1 2.3-7.7l3-7.2 3-7a30.8 30.8 0 0 0 2.2-7.5 9.1 9.1 0 0 1 1.4 4.1 18.2 18.2 0 0 1 0 4.3 29.6 29.6 0 0 1-2.3 8 38.6 38.6 0 0 1-4 7 28.3 28.3 0 0 1-5.6 6zM153.2 61.9l-2.2-9.4a49.5 49.5 0 0 0-2.7-8.6 16.4 16.4 0 0 0-1-1.8l-.5-.9-.6-.8-.3-.4-.4-.5-.9-1a12 12 0 0 1-1.3-2.6 7.2 7.2 0 0 1 .1-5.8 7 7 0 0 1 4-3.5 8.5 8.5 0 0 0-1.8 4.2 5.3 5.3 0 0 0 1 3.5 13 13 0 0 0 1.2 1.5l.8.8.4.3.5.6 1 1 .7 1.1a19.4 19.4 0 0 1 1.3 2.4 26 26 0 0 1 2.2 10 27.5 27.5 0 0 1-1.5 9.9zM64 105.3c-3 1-6 1.9-8.8 3a31.6 31.6 0 0 0-4 1.9 11.7 11.7 0 0 0-3.1 2.4 5.1 5.1 0 0 0-1 1.4v.4l-.2.4-.2 1.2a12.9 12.9 0 0 1-2.2 4.8 10.5 10.5 0 0 1-4 3.2 19.5 19.5 0 0 1-4.7 1.3c1.3-1 2.7-1.8 3.8-2.8a10.3 10.3 0 0 0 2.6-3.2 13 13 0 0 0 1.2-4l.1-1 .2-.8.2-.7a8.4 8.4 0 0 1 1.5-2.5 12.8 12.8 0 0 1 4.3-3.1 21.8 21.8 0 0 1 4.7-1.5 28 28 0 0 1 9.6-.4zM42.7 100.5a19.2 19.2 0 0 1-8.6-4 14.3 14.3 0 0 1-3.3-3.7 11 11 0 0 1-1.4-5.2 22.6 22.6 0 0 1 2.2-9.4c.6-1.4 1.4-2.8 2.2-4a18.6 18.6 0 0 0 2-4.1 11 11 0 0 1-.4 4.7l-1.2 4.4a33.2 33.2 0 0 0-1.3 8.4 9.2 9.2 0 0 0 .8 3.6 15.5 15.5 0 0 0 2.3 3.4 43.2 43.2 0 0 0 6.7 5.9zM192 47.8a26 26 0 0 1 10.3 5.3 20.4 20.4 0 0 1 4 4.5 18 18 0 0 1 1.5 2.8 16.3 16.3 0 0 1 1 3 16 16 0 0 1 .2 3.2 26.5 26.5 0 0 1-.3 3 24.5 24.5 0 0 1-1.7 5.8 22.2 22.2 0 0 1-1.3 2.7l-1.5 2.4a2.9 2.9 0 0 0-.4 2.3 12 12 0 0 0 1 2.5 8.6 8.6 0 0 1-1.9-2.2 2.5 2.5 0 0 1-.3-.7l-.1-.4v-.5a3 3 0 0 1 0-.8 4.4 4.4 0 0 1 0-.8c.7-2 1.5-3.6 2-5.4a34.9 34.9 0 0 0 .9-5.3 15.7 15.7 0 0 0-.1-5 19.2 19.2 0 0 0-4.9-9.1 54 54 0 0 0-8.4-7.3zM67.4 220.2a7.3 7.3 0 0 1 2.1 3 9.3 9.3 0 0 1 .7 3.5 9 9 0 0 1-.7 3.6 7.8 7.8 0 0 1-2 3l.5-3.4a21.3 21.3 0 0 0 .2-3.2 32 32 0 0 0-.8-6.5zM49.9 207.2a21.2 21.2 0 0 1-3.1 3.3l-3.4 2.5-3.4 2.3-1.6 1.1A5.2 5.2 0 0 0 37 218a3.5 3.5 0 0 1 0-2.5 8 8 0 0 1 1-2.2 13.7 13.7 0 0 1 3.4-3.2 17.3 17.3 0 0 1 4-2 12.9 12.9 0 0 1 4.5-.9zM234.2 123c1 3.4 2 6.9 3.2 10.2a59.5 59.5 0 0 0 4 9.6 19.5 19.5 0 0 0 6.4 7.4 13.2 13.2 0 0 0 4.6 1.8 23.6 23.6 0 0 0 5.3.3 14.5 14.5 0 0 1-5.4 1.5 13 13 0 0 1-5.8-1.1 15.2 15.2 0 0 1-4.8-3.5 23.2 23.2 0 0 1-3.4-4.7 35.4 35.4 0 0 1-3.6-10.6 38.3 38.3 0 0 1-.5-11zM223.7 88.9a20.5 20.5 0 0 1 6.4.1 16.5 16.5 0 0 1 6.2 2.4 12 12 0 0 1 4.6 5.4 14.1 14.1 0 0 1 .9 3.5l.3 3.2a68.8 68.8 0 0 1-.6 12.8c-.5 4.2-1.3 8.2-1.4 12.5a25.3 25.3 0 0 1-1.2-6.3 87 87 0 0 1-.2-6.4l-.1-12.4-.3-3-.2-1.4V99l-.1-.3-.2-.7a10.5 10.5 0 0 0-3.1-4.4 18 18 0 0 0-5-3 35.2 35.2 0 0 0-6-1.7zM257.7 211l-3.9-7.2-3.5-7.2c-1.2-2.4-2.3-4.7-3.6-7a55.3 55.3 0 0 0-4.3-6.8 17.9 17.9 0 0 1 6.6 5.2 34.1 34.1 0 0 1 4.5 7 44 44 0 0 1 2.9 7.8 33.9 33.9 0 0 1 1.3 8.2zM263.6 215.7a14 14 0 0 1-5.4 1 15.2 15.2 0 0 1-5.5-.9 11.5 11.5 0 0 1-4.6-3.2 9 9 0 0 1-2.1-5.2 18.8 18.8 0 0 0 3.3 3.9 16.7 16.7 0 0 0 4.2 2.3 46.7 46.7 0 0 0 10 2zM212.5 100a8.4 8.4 0 0 1 4.4 2 11 11 0 0 1 3 3.9 10.7 10.7 0 0 1 1 4.8 9 9 0 0 1-1.4 4.6l-.7-2.2a18 18 0 0 0-.7-2 35.9 35.9 0 0 0-1.5-3.7 37 37 0 0 0-1.8-3.6l-2.3-3.8zM193.7 101.8a51.9 51.9 0 0 1 6.6 11.1 58.9 58.9 0 0 1 4 12.5 45.5 45.5 0 0 1 .6 13.2 34.3 34.3 0 0 1-3.7 12.6v-.5 8a4.3 4.3 0 0 0 .1.6.6.6 0 0 0 .1.2l.2-.2c0 .1 0 .2-.2.3a.2.2 0 0 1-.1-.1.6.6 0 0 1-.1-.2 4.5 4.5 0 0 1-.2-.5l-.4-1.1a52.8 52.8 0 0 1-1.3-6.8v-.5l1-3 .6-3a46.6 46.6 0 0 0 .7-6 60.1 60.1 0 0 0-.7-12.4 91.5 91.5 0 0 0-3-12.2c-1.2-4-2.6-8-4.2-12zM222.4 204.3a15.7 15.7 0 0 1 1 7 16.4 16.4 0 0 1-2 6.9 12.6 12.6 0 0 1-5.4 5.1 11.3 11.3 0 0 1-7 1 26.5 26.5 0 0 0 5.5-3.3 16.2 16.2 0 0 0 3.8-4.6 28.6 28.6 0 0 0 2.4-5.6l1.7-6.5zM115.6 30a68.5 68.5 0 0 0-14-.8A42.6 42.6 0 0 0 88.2 32a36.2 36.2 0 0 0-6 3 38.2 38.2 0 0 0-5.3 4.3 57.8 57.8 0 0 0-8.5 11.2 33.2 33.2 0 0 1 6.5-13 32 32 0 0 1 5.4-5.2 31.4 31.4 0 0 1 6.6-3.6 34.7 34.7 0 0 1 14.7-2.2 36.5 36.5 0 0 1 14 3.5zM136.8 11.8a49.7 49.7 0 0 1 11.7 1.6 44.8 44.8 0 0 1 11.1 4.4 28.6 28.6 0 0 1 9.3 8 22.2 22.2 0 0 1 3 5.7 24 24 0 0 1 1.1 6.1v-.2l.6 3.4.7 3.3.9 3.3 1 3.2a31 31 0 0 0 2.8 6.1 15.1 15.1 0 0 0 2 2.7 13.2 13.2 0 0 0 1.4 1 6.7 6.7 0 0 1 1.3 1.2 7.8 7.8 0 0 0-1.5-.8 10.4 10.4 0 0 1-1.6-.8 13.2 13.2 0 0 1-2.7-2.4 27.1 27.1 0 0 1-3.8-6 56 56 0 0 1-2.6-6.7l-1-3.4-.8-3.4v-.2a23 23 0 0 0-1.1-5.3A23.3 23.3 0 0 0 166 28a23.6 23.6 0 0 0-3.7-4 30.9 30.9 0 0 0-4.4-3.5 53.6 53.6 0 0 0-4.9-2.8l-5.2-2.3a95.7 95.7 0 0 0-11.1-3.5zM95 93.3l7.2-5.7 3.6-2.8 3.4-2.9a77.3 77.3 0 0 0 12.3-12.6v.1l2.6-4.3c.9-1.4 1.8-2.9 2.9-4.2a42.6 42.6 0 0 1 3.2-4 19.9 19.9 0 0 1 2-1.8 9.3 9.3 0 0 1 1-.7 2.9 2.9 0 0 1 1.2-.5 5.6 5.6 0 0 0-1.8 1.7l-1.3 2.1a94.6 94.6 0 0 0-4.7 8.8l-2.2 4.5h-.1a40.3 40.3 0 0 1-6 7.4 62.7 62.7 0 0 1-7.2 6l-1.8 1.3-2 1.2a62 62 0 0 1-4 2.4 61.5 61.5 0 0 1-8.2 4zM60 248a18.5 18.5 0 0 1 4.8 5.8 19.6 19.6 0 0 1 2.2 7.4 14.2 14.2 0 0 1-1.5 7.8 11.8 11.8 0 0 1-5.5 5.3 23.4 23.4 0 0 0 3-6.3 18.5 18.5 0 0 0 .5-6.5 36.5 36.5 0 0 0-1.3-6.6c-.6-2.3-1.4-4.5-2.2-7z"/><path class="e" d="M184.5 116.4a110.8 110.8 0 0 0-1 14.5 39.5 39.5 0 0 0 .9 7 33.5 33.5 0 0 0 2.5 6.7 14.8 14.8 0 0 1-4.8-6 21.7 21.7 0 0 1-1.6-7.6 27.4 27.4 0 0 1 1-7.6 23 23 0 0 1 3-7z"/><path class="y" d="M98.8 224.2s-13.5 5.7-21-8a72.8 72.8 0 0 1-7.4-22.3c.1.6-3.9.5-3.9.5s2.3 25.8 19.9 34.8c4.2 1.7 11.8-.4 13.3-1.7 0 0 1.5-2-1-3.3z"/><path class="z" d="M50.5 137s9.9-2.4 13.4-1.7l3.6 23.3-2.2 4.8-11.1 1.5a23.7 23.7 0 0 1-1.5-2.6l-3.1-24z"/><path class="aa" d="M52.3 159l.4 3.3a23.7 23.7 0 0 0 1.5 2.6l11.1-1.5 2.2-4.8-.1-.7-11.2 1z"/><path class="ab" d="M53.5 136.4l-3 .7-1 1.2 3.2 24a25.5 25.5 0 0 0 1.3 2.3l2.5-5.4zM56.9 162l4 17 1.7 1 2 14.4s3.1 2.4 7.2-1l-2.4-13.8.3-1.7-4-18.2s-8-.6-8.8 2.3z"/><path class="z" d="M59.5 173.1c2.6-.3 4.4-1.5 4-1.5a10.5 10.5 0 0 1-4.9-2.2z"/><path class="z" d="M65.7 159.7h-2.3l3.8 13.7 1.4 11.1-2.9-.7-.4-2.8-.8-2.2-4-1.2.3 1.4 1.8 1 2 14.4a4.5 4.5 0 0 0 1.3.6c0-2.1-.1-4.2.1-4.5.4-1.1 3.3-1 3.3-1l1 5a9.1 9.1 0 0 0 1.5-1l-2.4-13.9.3-1.7zM99.2 227.5a2.3 2.3 0 0 0 .2.2 2.8 2.8 0 0 0 .3-.2s1.5-2-1-3.3c0 0-1.5.8.5 3.3zM89.3 225.1a7.6 7.6 0 0 0-.5 4.7h.9a9.9 9.9 0 0 1 .5-4.5l-1-.2z"/></svg>