<svg xmlns="http://www.w3.org/2000/svg" viewBox="0 0 380.6 414"><defs><style>.a{fill:none}.b{fill:#715135}.c{fill:#48261a}.d{fill:#5c3b29}.e{fill:#1c0e0b}.f{clip-path:url(#a)}.g{fill:#513325}.h{opacity:.24}.i{fill:#8e9cad}.j{fill:#e09ab8;opacity:.3}.k{fill:#ced3dc}</style><clipPath id="a"><path class="a" d="M33 392.3h317.4l-11.6-33.8h-294l-11.9 33.8z"/></clipPath></defs><path class="b" d="M57.8 331.2l-6.6-9.8h277.3l-6.2 9.8s-262.7 2.8-264.5 0z"/><path class="c" d="M57.8 331.2h264.5s-7.3 7.3-13.7 7.8c.4.4-234 0-234 0s-11.8.9-16.8-7.8z"/><path class="b" d="M81.6 13.3l-48 3.5-14 11.2 21 1.6L353 30.9 361 27l-12.2-10.2-267.2-3.5z"/><path class="c" d="M32.7 16.8L90.4 0h203.1L348 16.8H32.7z"/><path class="b" d="M378 407.9v5.7s-378 .9-378 0l1.6-5.7 4.6-2.8 363.2-2z"/><path class="d" d="M351.3 335.2l26.6 72.7H1.6l26.6-72.7h323z"/><path class="e" d="M36.3 337.9l308.4 1.6 16.5 61.2h-349L36.3 338z"/><path class="d" d="M351.3 335.2h-323L1.5 407.8h376.3zM56.6 345.5h266v3.2h-266zm-15.9 8h298l13.9 40H26.7z"/><path class="d" d="M117.8 356.6h18.7v17.8h-18.7zM139.7 356.6H158v17.8h-18.3zM180.2 356.6h15.7v17.8h-15.7zM160.5 356.6h16.7v17.8h-16.7zM80.9 374.4h16.5l1.9-17.8h-16l-2.4 17.8zM100.1 374.4h14.7v-17.8H102l-1.9 17.8zM220.6 356.6h18.1v17.8h-18.1zM263.1 356.6h16.3v17.8h-16.3zM317 356.6h-16.8l1.9 17.8h17.6l-2.7-17.8zM282.4 374.4h16.9l-2-17.8h-15.7l.8 17.8zM60 374.4h17.6l1.9-17.8h-16L60 374.4zM241.6 356.6h18.7v17.8h-18.7zM199.4 374.4h18.4v-17.8H199l.4 17.8zM97.1 377.2l-16.6-.1-1.7 13.3h17l1.3-13.2zM75.8 390.4l1.5-13.3-17.7-.2-2.5 13.5h18.7zM322.8 374.4H343l-6.1-17.8h-17l3 17.8zM299.8 378.7l-17.2-.1.5 11.8h18l-1.3-11.7zM320.3 378.9l-17.7-.2 1.2 11.7H322l-1.7-11.5zM36.8 374.4h20.7l3.5-17.8H42.7L36.3 375l.5-.5zM57 377l-21.3-.2-4.8 13.6h23.4l2.7-13.5zM344.5 379l-20.9-.1 2 11.5h22.8l-3.9-11.3zM136.5 377.5l-18.7-.1v13h18.7v-12.9zM279.4 378.6l-16.3-.1v11.9h16.3v-11.8zM114.8 377.4l-15-.2-1.3 13.2h16.3v-13zM238.6 378.3l-99-.8v12.9h99v-12.1zM260.3 378.4l-18.7-.1v12.1h18.7v-12z"/><path class="d" d="M354.6 395.4H28.7l14-40h298zm-321.7-3.1h317.5l-11.6-33.8h-294z"/><g class="f"><path class="d" d="M54.7 400.9h2.8l9.9-52.6-3.6 6-9.1 46.6zM76.7 402.4h2.7l7.3-54-4.6 4.8-5.4 49.2zM96.6 403.5h2.8l5.6-54.3-2.8.9-5.6 53.4zM116.9 403.5h3v-54.3l-3 5v49.3zM138.5 402.4h3.2v-54l-3.2 4.6v49.4zM160 378.5h2.6v-30.8l-2.6 4.8v26zM179.3 378.5h3V350l-3 1v27.4zM198 352.7v26.9h3.5l-.8-33-2.8 6.1zM219.8 378.5h2.8V350l-2.8 2.8v25.6zM240.7 393.9h3v-45.6l-3 4.9v40.7zM262.3 393.9h2.8v-47.3l-2.8 6v41.3zM281.4 353.8v40h3.8l-2-44.6-1.8 4.6zM298.9 354.3l4.3 39.6h2.8l-4.5-42.3-2.6 2.7zM320 347.7l-1.7 6.1 6 40h3.6l-8-46.1z"/><path class="d" d="M38.8 376.3h307.3l1.8 4.6-311.5-2.3 2.4-2.3z"/></g><path class="d" d="M19.7 25l344-1.2s16.7.8 17 17.3l-1.8 271.5s-1.4 11.7-17 11.5l-343 .5S1.5 329.2 2 299.1c.1-9-2-258.8-2-258.8S-1.6 25 19.6 24.9z"/><path class="g" d="M32 47.1h313.6s6.8-.8 6.5 6.3l1.3 241s1.3 7.7-13.6 7.5l-304.2.8s-8.6 2-8.4-9.8L28 58s-1.5-7 4.2-10.8z"/><path class="c" d="M37 57.4l208.5 2.4 95.7 1.1 9.4-12.2c-1.9-2-5-1.6-5-1.6H32.1a9.7 9.7 0 0 0-2.6 2.5z"/><path class="b" d="M338.3 289.3l-299.6-1.7-9 13.5a7 7 0 0 0 6 1.6l304.1-.8c7.8 0 11.2-2 12.6-4z"/><path class="e" d="M334 53.1s11.8-1.6 11.3 10.1c-.8 0-2.8 224.7-2.8 224.7s2.1 7.6-12 7.4L41 296.5s-7.9 1.3-7.6-11.2c-.8.7-1-226.3-1-226.3s-1.5-5.4 8-5.4L334 53z"/><g class="h"><path class="i" d="M71.6 271.3h234s4.3 2-17 3.8h-200s-10.7 0-17-3.8zM71.6 78.2h234s4.3-1.9-17-3.8h-200s-10.7 0-17 3.8z"/></g><circle class="j" cx="95.5" cy="179.9" r="11.2"/><circle class="j" cx="282" cy="179.9" r="11.2"/><path class="k" d="M189.5 195c-9.6 0-16.7-9.1-17-9.5a2.6 2.6 0 0 1 4-3.2c.1.1 6 7.4 13 7.4h.2c4 0 7.8-2.5 11.2-7.3a2.6 2.6 0 1 1 4.2 3c-4.5 6.2-9.6 9.4-15.3 9.5h-.3zM234 162.4a4.2 4.2 0 0 1-3.4-6.5c6-8.4 13-12.7 20.8-12.8h.3c13 0 22.7 12.1 23.1 12.6a4.2 4.2 0 0 1-6.5 5.2c0-.1-7.6-9.5-16.6-9.5h-.2c-5 0-9.7 3.2-14.2 9.3a4.2 4.2 0 0 1-3.3 1.7zM106 162.4a4.2 4.2 0 0 1-3.4-6.5c6-8.4 13-12.7 20.8-12.8h.4c13 0 22.6 12.1 23 12.6a4.2 4.2 0 0 1-6.5 5.2c-.1-.2-7.8-9.7-16.8-9.5-5 0-9.7 3.2-14.2 9.3a4.2 4.2 0 0 1-3.3 1.7z"/></svg>