<svg xmlns="http://www.w3.org/2000/svg" viewBox="0 0 31.7 31.7"><defs><style>.cls-1{fill:#273143;}.cls-2{fill:#eceff0;}</style></defs><title>instagram</title><g id="Layer_2" data-name="Layer 2"><g id="Layer_1-2" data-name="Layer 1"><path class="cls-1" d="M31.7,26.9a4.8,4.8,0,0,1-4.8,4.8H4.8A4.8,4.8,0,0,1,0,26.9V4.8A4.87,4.87,0,0,1,4.8,0H26.9a4.8,4.8,0,0,1,4.8,4.8Z"/><path class="cls-2" d="M9.2,7H22.9a2.43,2.43,0,0,1,2.4,2.4V23.1a2.43,2.43,0,0,1-2.4,2.4H9.2a2.43,2.43,0,0,1-2.4-2.4V9.4A2.5,2.5,0,0,1,9.2,7ZM20.3,9.1a.79.79,0,0,0-.8.8v2a.79.79,0,0,0,.8.8h2.1a.79.79,0,0,0,.8-.8v-2a.79.79,0,0,0-.8-.8Zm2.9,5.7H21.6a4.14,4.14,0,0,1,.2,1.6A5.68,5.68,0,0,1,16.1,22a5.61,5.61,0,0,1-5.7-5.6,7.77,7.77,0,0,1,.2-1.6H8.9v7.8a.68.68,0,0,0,.7.7H22.5a.68.68,0,0,0,.7-.7Zm-7.1-2.2a3.6,3.6,0,1,0,3.7,3.6A3.67,3.67,0,0,0,16.1,12.6Z"/></g></g></svg>