<svg xmlns="http://www.w3.org/2000/svg" viewBox="0 0 510 177.5"><defs><style>.cls-1{fill:#0070ba;}.cls-2{fill:#fff;}</style></defs><title>logo</title><g id="Layer_2" data-name="Layer 2"><g id="Layer_1-2" data-name="Layer 1"><path class="cls-1" d="M510,109.5a67.94,67.94,0,0,1-68,68H68a67.94,67.94,0,0,1-68-68V68A67.94,67.94,0,0,1,68,0H442a67.94,67.94,0,0,1,68,68Z"/><rect class="cls-1" width="66.8" height="67"/><rect class="cls-1" x="439.8" y="107.4" width="70.2" height="70.1"/><path class="cls-2" d="M70,7.5"/><path class="cls-2" d="M8,69.5"/><path class="cls-2" d="M5,108h5a59.42,59.42,0,0,0,17.5,42.1h0a59.39,59.39,0,0,0,42.2,17.4h0v5A64.7,64.7,0,0,1,5,108Z"/><path class="cls-2" d="M441,169.5"/><path class="cls-2" d="M500,69.5a59.24,59.24,0,0,0-17.5-42.1h0A59.75,59.75,0,0,0,440.4,10h0V5A64.61,64.61,0,0,1,505,69.5h-5ZM440.4,10Z"/><polygon class="cls-2" points="5 108.2 5 5 442 5 442 10 10 10 10 108.2 5 108.2"/><path class="cls-2" d="M69.5,172.5Zm0,0v-5H500v-98h5v103Z"/><path class="cls-2" d="M37.2,70.5h11l4,20.5L58,70.5H68.9l5.9,20.6,4-20.6h11l-8.3,36.9H70.1L63.5,84.2l-6.6,23.2H45.6Z"/><path class="cls-2" d="M93.2,70.5h31.1v7.9H104.8v5.9h18.1v7.5H104.8V99h20.1v8.4H93.2Z"/><path class="cls-2" d="M130.9,70.5h21.7c3.6,0,6.4.9,8.3,2.6a8.64,8.64,0,0,1,2.9,6.6,8,8,0,0,1-2.1,5.6,9.81,9.81,0,0,1-4,2.5,10.31,10.31,0,0,1,6,3.3,8.63,8.63,0,0,1,1.9,5.8,10,10,0,0,1-5.1,8.7,10.6,10.6,0,0,1-4.4,1.2c-2.6.3-4.3.5-5.2.5h-20ZM142.6,85h5a6,6,0,0,0,3.8-.9,3.39,3.39,0,0,0,1.1-2.7,3.1,3.1,0,0,0-1.1-2.5,5.71,5.71,0,0,0-3.7-.9h-5.1Zm0,14.5h5.9c2,0,3.4-.3,4.2-1a3.49,3.49,0,0,0,1.2-2.8,3.09,3.09,0,0,0-1.2-2.6c-.8-.7-2.2-1-4.3-1h-5.9v7.4Z"/><path class="cls-2" d="M171.5,70.5h11.6V83.4h12.7V70.5h11.7v36.9H195.8V92.5H183.1v14.9H171.5Z"/><path class="cls-2" d="M238,101.4H224.8l-1.8,6.1H211.1l14.1-36.9H238l14.1,36.9H239.9Zm-2.4-8-4.1-13.3-4.1,13.3Z"/><path class="cls-2" d="M255.5,70.5h11.6V98.3h18.1v9.1H255.5V70.5Z"/><path class="cls-2" d="M290.2,70.5h11.6V98.3h18.1v9.1H290.2Z"/><path class="cls-2" d="M324.9,70.5H356v7.9H336.5v5.9h18.1v7.5H336.5V99h20.1v8.4H324.9Z"/><path class="cls-2" d="M362.6,70.5h10.9l14.1,20.4V70.5h10.9v36.9H387.6L373.5,87.1v20.3H362.6Z"/><path class="cls-2" d="M409.7,103.1h4.7v4.3h-4.7Z"/><path class="cls-2" d="M433.8,99.7a7.7,7.7,0,0,1,2.2-5.9,8.12,8.12,0,0,1,6-2.1,8.53,8.53,0,0,1,6.1,2.1,7.79,7.79,0,0,1,2.1,5.8,9.29,9.29,0,0,1-.9,4.4,5.89,5.89,0,0,1-2.7,2.7,9.53,9.53,0,0,1-4.4,1,10.81,10.81,0,0,1-4.4-.8,6.39,6.39,0,0,1-2.8-2.6A8.52,8.52,0,0,1,433.8,99.7Zm4.9,0a4.65,4.65,0,0,0,.9,3.3,3,3,0,0,0,2.4,1,2.84,2.84,0,0,0,2.4-1,5.57,5.57,0,0,0,.9-3.6,4.89,4.89,0,0,0-.9-3.2,3.38,3.38,0,0,0-4.8,0A5.64,5.64,0,0,0,438.7,99.7Z"/><path class="cls-2" d="M452.7,92h6.4l2.4,9.4L464,92h6.4v15.5h-4V95.6l-3.1,11.8h-3.6l-3-11.8v11.8h-4V92Z"/><circle class="cls-2" cx="328.85" cy="63" r="1.9"/><circle class="cls-2" cx="339.8" cy="48" r="2.7"/><circle class="cls-2" cx="355.05" cy="37.9" r="3.4"/><circle class="cls-2" cx="373.8" cy="34.4" r="4.2"/><circle class="cls-2" cx="392.5" cy="36.65" r="5"/><circle class="cls-2" cx="407.9" cy="46.9" r="6.5"/><circle class="cls-2" cx="419.35" cy="61.2" r="7"/><circle class="cls-2" cx="424.3" cy="79.2" r="7.7"/><path class="cls-2" d="M427.8,101.1l4.3,1.3a6.07,6.07,0,0,1-1.4,2.9,5.78,5.78,0,0,1-2.3,1.8,8.8,8.8,0,0,1-3.5.6,10.24,10.24,0,0,1-4.2-.7,6.28,6.28,0,0,1-2.8-2.6,8.41,8.41,0,0,1-1.2-4.7,7.87,7.87,0,0,1,2.1-5.9,8,8,0,0,1,5.9-2.1,8.18,8.18,0,0,1,4.7,1.2,6.91,6.91,0,0,1,2.5,3.6l-4.3.9a3,3,0,0,0-.5-1,2.54,2.54,0,0,0-1-.8,2.77,2.77,0,0,0-1.3-.3,2.66,2.66,0,0,0-2.5,1.3,7.41,7.41,0,0,0,.1,6.5,2.79,2.79,0,0,0,2.2.9,2.86,2.86,0,0,0,2.1-.8A3.49,3.49,0,0,0,427.8,101.1Z"/><circle class="cls-2" cx="419.35" cy="116.6" r="7"/><circle class="cls-2" cx="407.9" cy="130.9" r="6.5"/><circle class="cls-2" cx="392.5" cy="141.1" r="5"/><circle class="cls-2" cx="373.8" cy="143.3" r="4.2"/><circle class="cls-2" cx="355.05" cy="139.8" r="3.4"/><circle class="cls-2" cx="339.8" cy="129.8" r="2.7"/><circle class="cls-2" cx="328.85" cy="114.8" r="1.9"/></g></g></svg>