<?xml version="1.0" encoding="UTF-8" standalone="no"?>
<!-- Generator: Adobe Illustrator 19.0.0, SVG Export Plug-In  -->

<svg
   xmlns:dc="http://purl.org/dc/elements/1.1/"
   xmlns:cc="http://creativecommons.org/ns#"
   xmlns:rdf="http://www.w3.org/1999/02/22-rdf-syntax-ns#"
   xmlns:svg="http://www.w3.org/2000/svg"
   xmlns="http://www.w3.org/2000/svg"
   xmlns:sodipodi="http://sodipodi.sourceforge.net/DTD/sodipodi-0.dtd"
   xmlns:inkscape="http://www.inkscape.org/namespaces/inkscape"
   version="1.1"
   x="0px"
   y="0px"
   width="53.299999"
   height="53.299999"
   viewBox="0 0 53.3 53.300002"
   style="overflow:scroll"
   xml:space="preserve"
   id="svg2"
   inkscape:version="0.91 r13725"
   sodipodi:docname="menu.svg"><metadata
     id="metadata18"><rdf:RDF><cc:Work
         rdf:about=""><dc:format>image/svg+xml</dc:format><dc:type
           rdf:resource="http://purl.org/dc/dcmitype/StillImage" /><dc:title></dc:title></cc:Work></rdf:RDF></metadata><sodipodi:namedview
     pagecolor="#ffffff"
     bordercolor="#666666"
     borderopacity="1"
     objecttolerance="10"
     gridtolerance="10"
     guidetolerance="10"
     inkscape:pageopacity="0"
     inkscape:pageshadow="2"
     inkscape:window-width="1920"
     inkscape:window-height="1174"
     id="namedview16"
     showgrid="false"
     inkscape:zoom="4.9906192"
     inkscape:cx="27.050751"
     inkscape:cy="17.799999"
     inkscape:window-x="0"
     inkscape:window-y="0"
     inkscape:window-maximized="1"
     inkscape:current-layer="svg2" /><style
     type="text/css"
     id="style4">
	.st0{fill:#E5E8E9;}
</style><defs
     id="defs6" /><g
     id="g8"
     transform="translate(0.20037588,9.1214299)"><path
       class="st0"
       d="M 52.3,5.9 1,5.9 C 0.4,5.9 0,5.4 0,4.9 L 0,1 C 0,0.4 0.4,0 1,0 l 51.3,0 c 0.6,0 1,0.4 1,1 l 0,3.9 c 0,0.6 -0.4,1 -1,1 z"
       id="path10"
       inkscape:connector-curvature="0"
       style="fill:#e5e8e9" /><path
       class="st0"
       d="M 52.3,20.7 1,20.7 c -0.6,0 -1,-0.5 -1,-1 l 0,-3.9 c 0,-0.6 0.4,-1 1,-1 l 51.3,0 c 0.6,0 1,0.4 1,1 l 0,3.9 c 0,0.6 -0.4,1 -1,1 z"
       id="path12"
       inkscape:connector-curvature="0"
       style="fill:#e5e8e9" /><path
       class="st0"
       d="M 52.3,35.6 1,35.6 c -0.6,0 -1,-0.4 -1,-1 l 0,-3.9 c 0,-0.5 0.4,-1 1,-1 l 51.3,0 c 0.6,0 1,0.5 1,1 l 0,3.9 c 0,0.5 -0.4,1 -1,1 z"
       id="path14"
       inkscape:connector-curvature="0"
       style="fill:#e5e8e9" /></g></svg>