<svg xmlns="http://www.w3.org/2000/svg" xmlns:xlink="http://www.w3.org/1999/xlink" viewBox="0 0 484 348"><defs><style>.cls-1{fill:none;}.cls-2{clip-path:url(#clip-path);}.cls-3{fill:#db1d15;}.cls-4{clip-path:url(#clip-path-2);}.cls-5{fill:#4495bb;}.cls-6{fill:gold;}.cls-7{fill:#c61718;}.cls-8{fill:#3e8aaf;}.cls-9{fill:#e7ba00;}.cls-10{opacity:0.23;}.cls-11{fill:#a32923;}.cls-12{fill:#b1951f;}.cls-13{fill:#942623;}.cls-14{fill:#fff;}.cls-15{fill:#173449;}.cls-16{clip-path:url(#clip-path-6);}.cls-17{clip-path:url(#clip-path-7);}.cls-18{fill:#397188;}.cls-19{fill:#376b80;}.cls-20{fill:#a28325;}.cls-21{fill:#7c2e29;}.cls-22{fill:#7e6e2e;}.cls-23{fill:#355b69;}.cls-24{fill:#7d7d7f;}.cls-25{fill:#712b28;}.cls-26{fill:#76632f;}.cls-27{fill:#afafb1;}.cls-28{fill:#1c2d3b;}.cls-29{fill:#1c4359;}</style><clipPath id="clip-path"><rect class="cls-1" x="0.06" y="0.44" width="483.83" height="347.5"/></clipPath><clipPath id="clip-path-2"><rect class="cls-1" width="484" height="348"/></clipPath><clipPath id="clip-path-6"><path d="M65.1,320.51V256.39l-15.85,3.41V240l34.89-7.5a152.24,152.24,0,0,0,28.71,58L65.1,300.68v19.84"/></clipPath><clipPath id="clip-path-7"><rect width="484" height="348"/></clipPath></defs><title>prisjakt_onlinevaruhus_2017</title><g id="Layer_2" data-name="Layer 2"><g id="Layer_1-2" data-name="Layer 1"><g class="cls-2"><path class="cls-3" d="M232.39,42.46A152.77,152.77,0,1,1,79.62,195.23,152.76,152.76,0,0,1,232.39,42.46"/></g><g class="cls-4"><path class="cls-5" d="M313.08,195.23a80.74,80.74,0,1,1-80.74-80.74,80.74,80.74,0,0,1,80.74,80.74"/></g><g class="cls-2"><path class="cls-6" d="M347.3,195.23A114.39,114.39,0,0,0,326,128.62l15.1-15.1A136.72,136.72,0,0,0,314,86.4l-15.11,15.11A115,115,0,0,0,166,101.45L150.84,86.33a136.74,136.74,0,0,0-27.15,27.1l15.1,15.11a115,115,0,0,0-.14,133.21l-15,15a136.78,136.78,0,0,0,27.12,27.12l15-15a115,115,0,0,0,133.31-.06l15,15a136.73,136.73,0,0,0,27.1-27.15l-15-15a114.39,114.39,0,0,0,21.13-66.43m-195.65,0A80.74,80.74,0,1,1,232.39,276a80.74,80.74,0,0,1-80.74-80.74"/><path class="cls-7" d="M384.67,206.85q.43-5.76.44-11.62A152.77,152.77,0,1,0,232.34,348h0A152.78,152.78,0,0,0,384.71,206.93v0l0,0m-2.4-3.2L330.36,134.5l12-12q-2.19-2.91-4.52-5.69L326,128.62a115,115,0,0,1,.13,133l15,15a136.73,136.73,0,0,1-27.1,27.15l-15-15a115,115,0,0,1-133.31.06l-15,15a136.77,136.77,0,0,1-22.6-21.43l-3.31,3.31A136.83,136.83,0,0,0,152,312.9L166,298.85l31.9,42.59a150.24,150.24,0,0,1-24-284.57A150.12,150.12,0,0,1,382.5,195.23q0,4.23-.23,8.43"/></g><g class="cls-4"><path class="cls-7" d="M128.33,118.07q-1.76,2.15-3.43,4.36l10.75,10.75q1.52-2.36,3.14-4.65l-10.47-10.47"/><path class="cls-8" d="M160.91,204.6a80.73,80.73,0,0,1,133-61.58A80.73,80.73,0,1,0,180.07,256.81a80.41,80.41,0,0,1-19.16-52.21"/><path class="cls-6" d="M270.65,195.23a38.31,38.31,0,1,1-38.31-38.31,38.31,38.31,0,0,1,38.31,38.31"/><path class="cls-8" d="M265.21,175.54A38.31,38.31,0,0,1,203.13,220a38.33,38.33,0,1,0,62.07-44.48"/><path class="cls-9" d="M232.39,114.38a80.74,80.74,0,1,1-80.74,80.74,80.74,80.74,0,0,1,80.74-80.74m0-2.6a83.08,83.08,0,1,0,32.44,6.55,82.83,82.83,0,0,0-32.44-6.55"/><path class="cls-10" d="M357.51,282.9q2.48-3.54,4.77-7.22l51.13-10.79v6.44l-55.9,11.57m-239.57,49.6v-36q2.8,3.16,5.78,6.17V326l22.33-4.71q3.07,2.1,6.25,4.07l-34.36,7.11"/><path class="cls-11" d="M357.51,282.9q2.49-3.54,4.77-7.22-2.28,3.68-4.77,7.22h0m-233.79,16q-3-3.13-5.78-6.4v-3.2l5.78-1.24v10.84M226.59,310a115.17,115.17,0,0,1-16.95-2.11A115.17,115.17,0,0,0,226.59,310M156,324.61q-3.28-1.94-6.46-4l28.23-6,3.56,4.75L156,324.61"/><path class="cls-12" d="M304.2,293.94l-5-5L338,280.81q-3.14,3.87-6.55,7.49l-27.23,5.64M226.59,310a115.17,115.17,0,0,1-16.95-2.11l89-18.79a114.83,114.83,0,0,1-15.33,9.15L226.59,310"/><path class="cls-13" d="M331.43,288.3q3.41-3.62,6.55-7.49l24.3-5.13q-2.29,3.68-4.77,7.22l-26.08,5.4m-48.07,10a114.83,114.83,0,0,0,15.33-9.15l.56-.12,5,5-20.84,4.31m-159.64,4.41q-3-3-5.78-6.17v-4q2.79,3.27,5.78,6.4v3.73m57.65,16.71-3.56-4.75,31.83-6.72A115.17,115.17,0,0,0,226.59,310l-45.22,9.36m-29.07,6q-3.17-2-6.25-4.07l3.53-.74q3.18,2.1,6.46,4l-3.73.77"/><polyline class="cls-5" points="421.48 263.18 123.72 326.03 123.72 277.55 421.48 214.71 421.48 263.18"/><path class="cls-14" d="M149.12,305.94l-1.34-4.1-6.73,1.47L139.72,308l-4.22.92,6.3-19.33a2.6,2.6,0,0,1-.53-1.7,3.73,3.73,0,0,1,3.13-3.68c1.86-.4,3.21.54,3.21,2.27a3.59,3.59,0,0,1-.59,2L153.34,305l-4.22.92m-2.27-7.19c-1.24-3.71-1.93-5.82-2.08-6.31a11.25,11.25,0,0,1-.34-1.16Q144,293,142,299.8l4.81-1m-3.66-11.29c0,.76.4,1.14,1.21,1a1.5,1.5,0,0,0,1.21-1.49.9.9,0,0,0-1.21-.95,1.48,1.48,0,0,0-1.21,1.48"/><path class="cls-14" d="M165.56,302.36l-4.41-6.13-2.08.45v7.09l-3.92.85V286.15l5.38-1.17c5-1.09,7.38.2,7.38,3.93a6.86,6.86,0,0,1-3.43,5.64q4.17,5.32,5.43,6.86l-4.34.95m-6.49-13.85v5l1.26-.28c2.48-.54,3.63-1.58,3.63-3.35s-1.17-2.17-3.7-1.62Z"/><polyline class="cls-14" points="175.63 296.93 182.34 295.46 182.34 298.7 171.71 301.02 171.71 282.55 182.34 280.23 182.34 283.44 175.63 284.9 175.63 288.96 181.88 287.59 181.88 290.8 175.63 292.17 175.63 296.93"/><polyline class="cls-14" points="197.82 280.12 192.8 281.21 192.8 296.42 188.89 297.27 188.89 282.06 183.88 283.15 183.88 279.89 197.82 276.86 197.82 280.12"/><path class="cls-14" d="M211,287.32c0,3.34-2.52,5.93-6.81,6.87a10.92,10.92,0,0,1-5.23,0v-3.64a12.34,12.34,0,0,0,5.53.31c1.72-.37,2.67-1.24,2.67-2.54,0-.72-.4-1.17-1.19-1.52a17.61,17.61,0,0,0-2.4-.73c-2.26-.57-3.22-1.23-3.89-2.39a4.17,4.17,0,0,1-.5-2.16c0-3.27,2.35-5.77,6.25-6.62A12.31,12.31,0,0,1,211,275l-1.26,3.32a10,10,0,0,0-4.34-.14,2.54,2.54,0,0,0-2.3,2.37,1.43,1.43,0,0,0,1,1.42,17.15,17.15,0,0,0,2.47.76c3.45.9,4.51,2.14,4.51,4.55"/><path class="cls-14" d="M232.93,269.21l3.52-.77v18.47l-5,1.08-8-12.23-.11,0c.16,2.43.24,4.18.24,5.23v8.69l-3.5.76V272l4.94-1.08L233,283l.09,0c-.13-2.37-.19-4.05-.19-5.05v-8.74"/><path class="cls-14" d="M249.57,265.51l6.54,17.12-4.22.92-1.34-4.1-6.73,1.47-1.34,4.69-4.22.92,6.52-20,4.79-1m-6.69-2a2.06,2.06,0,0,1,1.76-2.09c1.11-.24,1.78.29,1.78,1.32a2.11,2.11,0,0,1-1.78,2.07c-1.07.23-1.76-.24-1.76-1.3m6.74,12.87c-1.24-3.71-1.93-5.82-2.08-6.31a11.3,11.3,0,0,1-.34-1.16q-.42,1.7-2.39,8.52l4.81-1m-1.65-14a2.07,2.07,0,0,1,1.78-2.09c1.1-.24,1.79.25,1.79,1.31a2.13,2.13,0,0,1-1.79,2.07c-1,.22-1.78-.14-1.78-1.29"/><polyline class="cls-14" points="268.25 264.77 263.23 265.86 263.23 281.08 259.32 281.93 259.32 266.72 254.31 267.81 254.31 264.55 268.25 261.51 268.25 264.77"/><path class="cls-14" d="M270.57,279.48V261l5.75-1.25c5.24-1.14,7.48-.2,7.48,3a4.72,4.72,0,0,1-2.84,4.61v.13c2.33,0,3.31,1.22,3.31,3.6,0,3.37-2.6,5.92-6.78,6.83l-6.91,1.51m3.92-16.12v4.11l2.27-.5c2.12-.46,3-1.26,3-2.78s-1-1.77-3.23-1.28Zm0,7.21v4.81l2.55-.56c2.16-.47,3.16-1.5,3.16-3.2,0-1.53-1.1-2.06-3.28-1.58Z"/><path class="cls-14" d="M298.56,254.91l3.9-.85v12a8,8,0,0,1-3.56,6.73,11.38,11.38,0,0,1-4.09,1.71c-4.75,1-7.5-1-7.5-5.19v-11.9l3.9-.85v11.31c0,2.84,1.06,3.9,3.7,3.32s3.65-2.08,3.65-5V254.91"/><polyline class="cls-14" points="318.61 253.8 313.59 254.89 313.59 270.1 309.68 270.96 309.68 255.75 304.67 256.84 304.67 253.58 318.61 250.54 318.61 253.8"/><polyline class="cls-14" points="324.85 249.18 324.85 267.65 320.93 268.5 320.93 250.03 324.85 249.18"/><polyline class="cls-14" points="343.78 245.06 337.34 254.63 343.83 263.52 339.38 264.48 334.55 257.76 332.89 259.3 332.89 265.9 328.98 266.75 328.98 248.28 332.89 247.43 332.89 255.88 334.44 253.37 339.44 246 343.78 245.06"/><path class="cls-14" d="M355.41,257.71l8-1.75v3.28l-12.91,2.81v-2.72l4.63-5.7c1.38-1.7,2.27-2.88,2.69-3.52a5.62,5.62,0,0,0,1.19-3.2c0-1.48-.88-2-2.25-1.71a8.64,8.64,0,0,0-4.19,2.81L350.5,246a12.37,12.37,0,0,1,4.22-3.31,12,12,0,0,1,2.37-.77c2.31-.5,4.14,0,5.12,1.29a3.94,3.94,0,0,1,.73,2.44,8.78,8.78,0,0,1-1.83,5.09,49.63,49.63,0,0,1-3.32,4.07l-2.37,2.75v.18"/><path class="cls-14" d="M377.61,246.92c0,6.46-2.07,9.94-6.47,10.9s-6.44-1.83-6.44-8.08c0-6.52,2.06-10,6.44-10.93s6.47,1.89,6.47,8.12m-9,2a13.15,13.15,0,0,0,.59,4.74,1.59,1.59,0,0,0,2,1,2.73,2.73,0,0,0,2-1.92,15.25,15.25,0,0,0,.61-5,13,13,0,0,0-.61-4.76,1.62,1.62,0,0,0-2-1,2.7,2.7,0,0,0-2,1.91A15.86,15.86,0,0,0,368.58,248.89Z"/><path class="cls-14" d="M385.49,236l3.21-.7v18.47l-3.9.85V243.9l0-1.76.06-1.93c-.64.78-1.1,1.31-1.35,1.57l-2.12,2.17L379.54,242l5.95-6"/><polyline class="cls-14" points="406.2 233.93 399.22 251.45 395.13 252.34 402.06 235.67 392.95 237.65 392.95 234.37 406.2 231.48 406.2 233.93"/></g><g class="cls-2"><polyline class="cls-15" points="428.76 180.74 483.89 169.76 457.83 207.09 483.89 233.77 427.94 244.86 428.76 180.74"/><polyline class="cls-15" points="65.1 320.51 0 334.51 25.57 296.84 0 270.38 65.1 256.38 65.1 320.51"/></g><g class="cls-10"><path d="M65.1,320.51V256.39l-15.85,3.41V240l34.89-7.5a152.24,152.24,0,0,0,28.71,58L65.1,300.68v19.84"/><g class="cls-16"><rect width="484" height="348"/><g class="cls-17"><rect x="49.25" y="232.46" width="63.59" height="88.06"/></g></g></g><g class="cls-4"><path class="cls-11" d="M115.68,289.81a149.95,149.95,0,0,1-29-57.9l34.55-7.43a114.43,114.43,0,0,0,17.43,37.25l-13.85,13.85L117.94,277v12.31l-2.26.49"/><path class="cls-12" d="M124.81,275.59l13.85-13.85a114.43,114.43,0,0,1-17.43-37.25l30.95-6.65A83.3,83.3,0,0,0,173.46,254a83.85,83.85,0,0,0,10.93,9.21l-59.57,12.33"/><path class="cls-13" d="M112.84,290.42a152.24,152.24,0,0,1-28.71-58l2.54-.55a149.95,149.95,0,0,0,29,57.9l-2.84.61"/><path class="cls-11" d="M306.71,226.7a80.46,80.46,0,0,0,6.36-31.47,81.4,81.4,0,0,0-.86-11.79h0a81.39,81.39,0,0,1,.85,11.8q0,.66,0,1.32a80.41,80.41,0,0,1-6.4,30.15"/><path class="cls-18" d="M187.93,262.53a80.9,80.9,0,0,1-8.45-6.42,80.38,80.38,0,0,1-17.8-40.32l34.65-7.45A38.28,38.28,0,0,0,203.14,220a38.34,38.34,0,0,0,70.32-28.26l38.76-8.33a81.4,81.4,0,0,1,.86,11.79A79.93,79.93,0,0,1,300,239.33l-112,23.19"/><path class="cls-12" d="M313.11,196.55q0-.66,0-1.32a81.39,81.39,0,0,0-.85-11.8h0a81.46,81.46,0,0,1,.84,11.69q0,.72,0,1.43"/><path class="cls-18" d="M230.7,233.51h0m.07,0h0m.07,0h0m.07,0h0m.28,0h0m.07,0h0m.07,0h0m.07,0h0m.07,0h0m.07,0h0m.07,0h0m.07,0h0m.07,0h0m.08,0h0m.07,0h0m.07,0h0m.07,0h0m.07,0h0m.07,0h0m.07,0h0m.07,0h0"/><path class="cls-19" d="M179.48,256.11a80.77,80.77,0,0,1-24.75-38.82l6.95-1.49a80.38,80.38,0,0,0,17.8,40.32"/><path class="cls-12" d="M232.34,233.54H230.7A38.23,38.23,0,0,1,203.13,220h0a38.28,38.28,0,0,1-6.81-11.69l74.21-15.95q.1,1.4.1,2.83a38.31,38.31,0,0,1-38,38.31h-.31"/><path class="cls-19" d="M236.14,238.85a38.31,38.31,0,0,1-33-18.82h0a38.23,38.23,0,0,0,27.57,13.48h1.95a38.31,38.31,0,0,0,38-38.31q0-1.43-.1-2.83l2.92-.63a38.36,38.36,0,0,1-37.33,47.08"/><path class="cls-10" d="M427.94,244.86V222.71l-6.46,1.39v-9.39l-8.07,1.7v-.56l-30.63,6.34a154.42,154.42,0,0,0,0-53.91l56.77-12.2v22.51l-10.79,2.15-.82,64.13"/><path class="cls-11" d="M382.27,203.66l-22.8-30.37,20.73-4.45a151.18,151.18,0,0,1,2.3,26.4q0,4.23-.23,8.43m.51,18.53a153,153,0,0,0,1.93-15.26v0l0,0q.43-5.76.44-11.62a153.69,153.69,0,0,0-2.37-26.94h0a154.42,154.42,0,0,1,0,53.91"/><path class="cls-12" d="M303.5,238.6a83.13,83.13,0,0,0,12.22-43.48,84.26,84.26,0,0,0-.89-12.24l30.9-6.64a115.78,115.78,0,0,1-4,54.44L303.5,238.6"/><path class="cls-13" d="M341.72,230.69a115.78,115.78,0,0,0,4-54.44l13.74-3,22.8,30.37q.23-4.2.23-8.43a151.18,151.18,0,0,0-2.3-26.4l2.54-.54a153.69,153.69,0,0,1,2.37,26.94q0,5.87-.44,11.62l0,0v0a153,153,0,0,1-1.93,15.26l-41.06,8.5"/><path class="cls-20" d="M300,239.33a80.33,80.33,0,0,0,13.16-42.78q0-.72,0-1.43a81.46,81.46,0,0,0-.84-11.69l2.55-.55a84.26,84.26,0,0,1,.89,12.24A83.13,83.13,0,0,1,303.5,238.6l-3.55.74M184.39,263.26a83.8,83.8,0,0,1-28.79-35.7,82.88,82.88,0,0,1-3.42-9.72l2.55-.55a81,81,0,0,0,33.2,45.24l-3.54.73"/><path class="cls-21" d="M117.94,289.32V277l6.87-1.42-1.19,1.19.52.68-.42.09v10.53l-5.78,1.24"/><path class="cls-22" d="M124.14,277.46l-.52-.68,1.19-1.19,59.57-12.33q.82.58,1.66,1.14l-61.9,13.06"/><path class="cls-23" d="M189.66,263.64q-.87-.54-1.73-1.11l112-23.19-.79,1.19-109.5,23.11"/><path class="cls-24" d="M382.65,222.9l.13-.71,30.63-6.34v.56l-30.76,6.49"/><path class="cls-21" d="M382.65,222.9l.13-.71-.13.71"/><path class="cls-22" d="M302.78,239.76l.72-1.16,38.22-7.91-.3.92-38.64,8.16"/><path class="cls-25" d="M341.42,231.6l.3-.92,41.06-8.5-.13.71-41.23,8.7"/><path class="cls-26" d="M299.16,240.53l.79-1.19,3.55-.74-.72,1.16-3.62.76M186,264.4q-.83-.56-1.66-1.14l3.54-.73q.86.56,1.73,1.11l-3.61.76"/><path class="cls-18" d="M123.72,288.08V277.55l.42-.09,175-36.94,3.62-.76,38.64-8.16,41.23-8.7,30.76-6.49,8.07-1.7v9.39L251.27,260.67a1.21,1.21,0,0,0-1-.44,2.4,2.4,0,0,0-.51.06,2.22,2.22,0,0,0-1.52,1l-2.09.45a1.21,1.21,0,0,0-1-.43,2.34,2.34,0,0,0-.5.06,2.17,2.17,0,0,0-1.49,1L123.72,288.08"/><path class="cls-27" d="M248.22,261.33a2.22,2.22,0,0,1,1.52-1,2.4,2.4,0,0,1,.51-.06,1.21,1.21,0,0,1,1,.44l-3,.66m-5.08,1.09a2.17,2.17,0,0,1,1.49-1,2.34,2.34,0,0,1,.5-.06,1.21,1.21,0,0,1,1,.43l-3,.64"/><polyline class="cls-27" points="427.94 246.01 427.94 244.86 428.59 244.73 427.94 246.01"/><polyline class="cls-28" points="427.94 244.86 427.94 244.86 428.76 180.74 439.55 178.59 439.55 212.08 445.94 210.7 428.59 244.73 427.94 244.86"/><polyline class="cls-28" points="65.1 320.51 41.35 297.88 49.25 296.18 49.25 259.79 65.1 256.38 65.1 320.51"/><polyline class="cls-29" points="445.94 210.7 41.35 297.88 41.35 233.75 445.94 146.57 445.94 210.7"/><path class="cls-14" d="M74.39,276l-1.72-7.19-7.81,1.69-1.72,7.94-5.58,1.21,7.18-30.64a4,4,0,0,1-1-2.88,5.94,5.94,0,0,1,5-5.86c3-.64,5.13.82,5.13,3.63a5.85,5.85,0,0,1-1.07,3.39L80,274.83,74.39,276M70,257.51c-.18-.8-1.11-5.21-1.25-6.33q-.28,1.81-.68,4c-.27,1.47-1,4.87-2.13,10.16l5.66-1.23Zm-3.32-12c0,1.29.68,1.92,2.05,1.63a2.54,2.54,0,0,0,2.05-2.52A1.54,1.54,0,0,0,68.75,243,2.55,2.55,0,0,0,66.7,245.53Z"/><path class="cls-14" d="M94.1,271.77l-4.74-10.64-2,.43v11.67l-5.58,1.21v-30l7.3-1.58c6.17-1.34,9,.93,9,6.94q0,5.69-3.83,8.77l5.76,11.9-6,1.29m-6.73-23.7v8.69l1.44-.31c2.62-.57,3.69-2.3,3.69-5.25s-1.19-4-3.73-3.44Z"/><polyline class="cls-14" points="107.53 263.98 115.47 262.25 115.47 267.13 101.95 270.06 101.95 240.08 115.47 237.15 115.47 241.97 107.53 243.69 107.53 250.83 114.89 249.23 114.89 254.07 107.53 255.67 107.53 263.98"/><polyline class="cls-14" points="133.94 238.05 128.2 239.29 128.2 264.38 122.64 265.58 122.64 240.5 116.9 241.74 116.9 236.84 133.94 233.15 133.94 238.05"/><path class="cls-14" d="M150,251.39c0,5.6-2.91,9.31-8.24,10.46a12.42,12.42,0,0,1-6.66-.09v-5.52a10.07,10.07,0,0,0,6.17.86,3.8,3.8,0,0,0,3.22-4c0-2-1.19-3.21-4.14-4.6-2.56-1.23-3.73-2.45-4.45-4.33a9.27,9.27,0,0,1-.55-3.41,9.82,9.82,0,0,1,7.89-10.08,11.21,11.21,0,0,1,6.62.49L148,236.07a7.61,7.61,0,0,0-4.37-.53c-1.81.39-2.81,1.88-2.81,3.93s1,3.08,3.92,4.36c3.92,1.78,5.25,4,5.25,7.56"/><path class="cls-14" d="M183,237.47c0,9.93-3.86,16.28-10.76,17.78s-10.79-3.14-10.79-13.15,3.83-16.21,10.83-17.73S183,227.54,183,237.47m-15.85,3.44c0,6.83,1.74,10.12,5.09,9.4s5-4.6,5-11.59-1.66-10.14-5-9.42S167.13,234,167.13,240.9Z"/><path class="cls-14" d="M202.38,218.31l5.13-1.11v30l-6.81,1.48-9.27-19.71-.27.06a24.19,24.19,0,0,1,.51,5.22v16.39l-5.17,1.12v-30l6.85-1.49,9.19,19.5.23,0a27.05,27.05,0,0,1-.39-5V218.31"/><polyline class="cls-14" points="225.27 238.45 225.27 243.33 211.96 246.22 211.96 216.24 217.54 215.03 217.54 240.13 225.27 238.45"/><polyline class="cls-14" points="234.25 211.4 234.25 241.38 229 242.52 229 212.54 234.25 211.4"/><path class="cls-14" d="M255.62,206.77l5.13-1.11v30l-6.81,1.48-9.27-19.71-.27.06a24.25,24.25,0,0,1,.51,5.22v16.39l-5.17,1.12v-30l6.85-1.49,9.19,19.5.22,0a27.13,27.13,0,0,1-.39-5V206.77"/><polyline class="cls-14" points="270.78 228.59 278.71 226.87 278.71 231.75 265.2 234.68 265.2 204.69 278.71 201.76 278.71 206.58 270.78 208.3 270.78 215.44 278.14 213.84 278.14 218.68 270.78 220.28 270.78 228.59"/><path class="cls-14" d="M295.14,198.2l5.62-1.22-7.05,31.51L286.61,230l-7-28.46,5.62-1.22,3.92,17.46a65,65,0,0,1,1,6.48c.29-2.54.65-4.86,1.09-6.94l3.88-19.15"/><path class="cls-14" d="M314.36,193.91l7.44,28.49-5.6,1.21-1.72-7.19-7.81,1.69-1.72,7.94-5.58,1.21,7.42-31.71,7.57-1.64m-.92,17.8-1.6-6.63c-.18-.8-1.11-5.21-1.25-6.33q-.27,1.81-.68,4c-.27,1.47-1,4.87-2.13,10.16Z"/><path class="cls-14" d="M335.91,219.35l-4.74-10.64-2,.43v11.67L323.61,222V192l7.3-1.58c6.17-1.34,9,.93,9,6.94q0,5.69-3.84,8.77l5.76,11.9-6,1.29m-6.73-23.71v8.7l1.43-.31c2.62-.57,3.69-2.3,3.69-5.25s-1.19-4-3.73-3.44Z"/><path class="cls-14" d="M356.67,184.87l5.54-1.2v19.4c0,7.14-3.32,11.71-9.41,13s-9.14-1.79-9.14-9.09V187.69l5.54-1.2v19.73c0,3.82,1.27,5.45,3.79,4.9,2.36-.51,3.69-2.81,3.69-6.4V184.87"/><polyline class="cls-14" points="379.47 179.92 385.05 178.71 385.05 208.69 379.47 209.9 379.47 196.76 372.11 198.35 372.11 211.5 366.54 212.71 366.54 182.73 372.11 181.52 372.11 193.43 379.47 191.84 379.47 179.92"/><path class="cls-14" d="M402.4,175l5.54-1.2v19.4c0,7.14-3.32,11.71-9.41,13s-9.15-1.79-9.15-9.09V177.77l5.54-1.2V196.3c0,3.82,1.27,5.45,3.79,4.9,2.36-.51,3.69-2.81,3.69-6.4V175"/><path class="cls-14" d="M425.92,191.57c0,5.6-2.91,9.31-8.24,10.46a12.44,12.44,0,0,1-6.66-.09v-5.52a10.07,10.07,0,0,0,6.17.86,3.8,3.8,0,0,0,3.22-4c0-2-1.19-3.21-4.14-4.6-2.56-1.23-3.73-2.45-4.45-4.33a9.28,9.28,0,0,1-.55-3.41,9.82,9.82,0,0,1,7.89-10.08,11.21,11.21,0,0,1,6.62.49l-1.85,4.87a7.61,7.61,0,0,0-4.37-.53c-1.8.39-2.81,1.88-2.81,3.93s1,3.08,3.92,4.36c3.92,1.78,5.25,4.05,5.25,7.56"/><path class="cls-14" d="M97,67.21c4.52,3.82,4.34,9.15-.52,14.9l-2.22,2.63L103,92.17l-2.2,2.6L78.49,75.87l4.9-5.79Q90.46,61.71,97,67.21m-14,8L92,82.85l2-2.34c3.89-4.6,4.13-7.73.84-10.51-3-2.5-6-1.83-9.44,2.26Z"/><path class="cls-14" d="M128.91,66l-13.37-4.42-4.57,4L119,74.75,116.48,77,97.1,55.08l6-5.32c5.38-4.76,9.7-4.92,13.36-.78q3.84,4.34.79,9.78l14.67,4.59-3,2.67M101.62,55.06,109,63.44l3.49-3.09c3.6-3.18,4-6,1.43-8.9s-5.24-2.66-9,.68Z"/><polyline class="cls-14" points="121.25 35.45 138.18 59.34 135.4 61.31 118.47 37.42 121.25 35.45"/><path class="cls-14" d="M154.73,40.24c2.54,4.47.57,9.09-5,12.26a18.91,18.91,0,0,1-7.62,2.79l-1.62-2.85a21.5,21.5,0,0,0,7.87-2.59c3.95-2.25,5-5,3.53-7.63-1-1.76-2.22-2.4-4.41-2.42a30.68,30.68,0,0,0-4.71.54c-5.69,1-8.76-.06-10.89-3.8-2.23-3.91-.45-8.24,4.4-11A20,20,0,0,1,144.06,23l.54,3.1a18,18,0,0,0-6.87,2.16c-3.13,1.78-4.18,4.27-2.83,6.65a4.39,4.39,0,0,0,4.25,2.49,23.6,23.6,0,0,0,4.42-.44c6.42-1.14,9.19-.16,11.17,3.32"/><path class="cls-14" d="M162.73,53.72a6.72,6.72,0,0,1-2.93.71l-1.18-2.65a11.28,11.28,0,0,0,2.87-.84c2.41-1.08,3-3.15,1.79-5.91L151.37,18.31l3.11-1.39,11.8,26.47c2.06,4.63.84,8.37-3.55,10.33"/><path class="cls-14" d="M173.69,9.61l20,24.44-3.35,1.08L184,27.39,172.83,31l-.57,10L169,42l2-31.53,2.73-.88M173,27.71l9-2.91-6-7.59c-.77-1-1.65-2.16-2.59-3.6a41.68,41.68,0,0,1,.1,4.41Z"/><polyline class="cls-14" points="212.28 1.35 202.77 15.83 217.55 30.14 213.6 30.8 200.73 18.57 198.16 21.76 200.06 33.07 196.7 33.63 191.87 4.77 195.22 4.21 197.62 18.52 208.31 2.02 212.28 1.35"/><polyline class="cls-14" points="238.22 3.46 228.96 3.72 229.67 29.95 226.26 30.05 225.55 3.81 216.29 4.06 216.21 1.04 238.14 0.44 238.22 3.46"/><path class="cls-14" d="M239.41,27.94c.1-1.78,1-2.67,2.51-2.58s2.4,1.08,2.31,2.86-1.09,2.65-2.61,2.56c-1.36-.08-2.32-.91-2.21-2.83"/><path class="cls-14" d="M274.95,5.21l3.13.57-5.2,28.8-3.82-.69-11.38-27-.16,0c-.3,2.88-.67,5.49-1.09,7.86l-3,16.37-3.09-.56,5.2-28.8,3.78.68,11.35,26.91.16,0c.07-.72.73-6,1.09-7.6l3-16.53"/><path class="cls-14" d="M307.17,15.51l3.19,1.18-6.59,17.75c-2.32,6.25-7.75,8.57-14.35,6.12s-9-7.68-6.62-14L289.36,8.9l3.19,1.18L285.91,28c-1.7,4.58-.11,8.05,4.75,9.86,4.63,1.72,8.17.13,9.88-4.47l6.63-17.86"/></g></g></g></svg>