<svg xmlns="http://www.w3.org/2000/svg" viewBox="0 0 12.69 8.96"><defs><style>.cls-1{fill:#FFFFFF;}</style></defs><title>truck</title><g id="Layer_2" data-name="Layer 2"><g id="Layer_1-2" data-name="Layer 1"><path class="cls-1" d="M6.56,0h-6A.58.58,0,0,0,0,.58V7.06a.58.58,0,0,0,.58.58h.7a1.82,1.82,0,0,1,3.62,0H6.56a.58.58,0,0,0,.58-.58V.58A.58.58,0,0,0,6.56,0Z"/><circle class="cls-1" cx="3.09" cy="7.86" r="1.09"/><circle class="cls-1" cx="10.07" cy="7.86" r="1.09"/><path class="cls-1" d="M12.59,4.33,11,2.16a.58.58,0,0,0-.47-.24H8.5a.58.58,0,0,0-.58.58V7.06a.58.58,0,0,0,.34.53,1.83,1.83,0,0,1,3.62.05h.23a.58.58,0,0,0,.58-.58V4.67A.58.58,0,0,0,12.59,4.33Zm-1.71.44H9.94a.58.58,0,0,1-.58-.58V3.14c0-.28.19-.28.28-.28h.7a.58.58,0,0,1,.47.24l.53.75A.58.58,0,0,1,10.87,4.77Z"/></g></g></svg>