<svg xmlns="http://www.w3.org/2000/svg" viewBox="0 0 31.7 31.7"><defs><style>.cls-1{fill:#273143;}.cls-2{fill:#eceff0;}</style></defs><title>twitter</title><g id="Layer_2" data-name="Layer 2"><g id="Layer_1-2" data-name="Layer 1"><path class="cls-1" d="M31.7,26.9a4.8,4.8,0,0,1-4.8,4.8H4.8A4.8,4.8,0,0,1,0,26.9V4.8A4.87,4.87,0,0,1,4.8,0H26.9a4.8,4.8,0,0,1,4.8,4.8Z"/><path class="cls-2" d="M27.2,10.1a8.43,8.43,0,0,1-2.4.7,3.79,3.79,0,0,0,1.8-2.3,8.25,8.25,0,0,1-2.6,1,4.16,4.16,0,0,0-3-1.3,4.23,4.23,0,0,0-4.2,4.2,2.77,2.77,0,0,0,.1.9A12,12,0,0,1,8.3,9a3.94,3.94,0,0,0-.5,2,4.36,4.36,0,0,0,1.8,3.5A4.14,4.14,0,0,1,7.7,14h0A4.18,4.18,0,0,0,11,18.1a3.75,3.75,0,0,1-1.1.1,2.2,2.2,0,0,1-.8-.1A4.08,4.08,0,0,0,13,21a8.39,8.39,0,0,1-5.2,1.8,3.4,3.4,0,0,1-1-.1,11.49,11.49,0,0,0,6.4,1.9A11.73,11.73,0,0,0,25,12.8v-.5A11.45,11.45,0,0,0,27.2,10.1Z"/></g></g></svg>