<svg xmlns="http://www.w3.org/2000/svg" viewBox="0 0 19.83 20"><defs><style>.a{fill:#fff;}</style></defs><title>medlemsikon_vit</title><path class="a" d="M18.59,14.91a9.82,9.82,0,0,0-3.22-1.61,16.83,16.83,0,0,0-6.57-.87,14.36,14.36,0,0,0-7.07,2.24A3.11,3.11,0,0,0,.12,17.14,11.39,11.39,0,0,1,0,19.25c0,.5.12.75.74.75H19.21c.5,0,.62-.12.62-.62V17.52A3,3,0,0,0,18.59,14.91Z"/><path class="a" d="M14.88,5.09A4.93,4.93,0,0,0,9.92,0,4.76,4.76,0,0,0,5,5a4.79,4.79,0,0,0,5,5.09C13,10.06,14.75,8,14.88,5.09Z"/></svg>