<svg xmlns="http://www.w3.org/2000/svg" viewBox="0 0 31.7 31.7"><defs><style>.cls-1{fill:#273143;}.cls-2{fill:#eceff0;}</style></defs><title>youtube</title><g id="Layer_2" data-name="Layer 2"><g id="Layer_1-2" data-name="Layer 1"><path class="cls-1" d="M31.7,26.9a4.8,4.8,0,0,1-4.8,4.8H4.8A4.8,4.8,0,0,1,0,26.9V4.8A4.87,4.87,0,0,1,4.8,0H26.9a4.8,4.8,0,0,1,4.8,4.8Z"/><path class="cls-2" d="M13.5,3.9H12.1l-.9,3.6-1-3.6H8.8c.3.8.6,1.7.9,2.5a22.67,22.67,0,0,1,.8,2.9V13h1.4V9.3Zm3.7,6.9V8.4a2.36,2.36,0,0,0-.4-1.6,1.51,1.51,0,0,0-1.4-.7,1.51,1.51,0,0,0-1.4.7,2.36,2.36,0,0,0-.4,1.6v2.4a2.36,2.36,0,0,0,.4,1.6,1.51,1.51,0,0,0,1.4.7,1.51,1.51,0,0,0,1.4-.7A2.36,2.36,0,0,0,17.2,10.8ZM16,11q0,.9-.6.9t-.6-.9V8.2q0-.9.6-.9t.6.9Zm5.7,2V6.2H20.5v5.2c-.3.4-.5.6-.8.6a.27.27,0,0,1-.3-.3V6.2H18.2v5.4a2.51,2.51,0,0,0,.1,1,.79.79,0,0,0,.8.5,2.27,2.27,0,0,0,1.4-.8V13Z"/><path class="cls-2" d="M25.7,21.3a19.47,19.47,0,0,1-.4,4.8,2.44,2.44,0,0,1-2.2,2,63.54,63.54,0,0,1-7.6.3,64.38,64.38,0,0,1-7.6-.3,2.54,2.54,0,0,1-2.2-2,19.08,19.08,0,0,1-.4-4.8,19.47,19.47,0,0,1,.4-4.8,2.44,2.44,0,0,1,2.2-2,63.54,63.54,0,0,1,7.6-.3,64.38,64.38,0,0,1,7.6.3,2.54,2.54,0,0,1,2.2,2A19.08,19.08,0,0,1,25.7,21.3Z"/><path class="cls-1" d="M11.3,17.9V16.6H7.1v1.3H8.5v7.8H9.9V17.9Zm2.5,7.7v-.7a1.73,1.73,0,0,1-1.4.8.79.79,0,0,1-.8-.5,2.51,2.51,0,0,1-.1-1V18.9h1.2v5.5a.27.27,0,0,0,.3.3c.2,0,.5-.2.8-.6V19H15v6.7H13.8Zm4.6-1.9c0,.6-.2.9-.5.9a.86.86,0,0,1-.6-.3V20.2a.86.86,0,0,1,.6-.3c.4,0,.5.3.5.9Zm1.2-.1V20.9a5.31,5.31,0,0,0-.1-1.4,1.05,1.05,0,0,0-1-.8,1.71,1.71,0,0,0-1.3.7V16.5H16v9h1.2V25a1.57,1.57,0,0,0,1.3.7,1.05,1.05,0,0,0,1-.8A4.15,4.15,0,0,0,19.6,23.6ZM23,21.5H21.8v-.6q0-.9.6-.9t.6.9Zm1.2,2v-.2H23v.8c-.1.3-.2.5-.5.5s-.6-.3-.6-.9V22.5h2.4V21.1a2.54,2.54,0,0,0-.4-1.6,1.51,1.51,0,0,0-1.4-.7,1.8,1.8,0,0,0-1.5.7,2.36,2.36,0,0,0-.4,1.6v2.4a2.54,2.54,0,0,0,.4,1.6,1.68,1.68,0,0,0,1.5.7,1.8,1.8,0,0,0,1.5-.7c.1-.2.2-.5.3-.7A2.48,2.48,0,0,1,24.2,23.5Z"/></g></g></svg>